<?xml version="1.0" encoding="UTF-8" standalone="no"?>
<!-- Created with Inkscape (http://www.inkscape.org/) -->

<svg
   xmlns:dc="http://purl.org/dc/elements/1.1/"
   xmlns:cc="http://creativecommons.org/ns#"
   xmlns:rdf="http://www.w3.org/1999/02/22-rdf-syntax-ns#"
   xmlns:svg="http://www.w3.org/2000/svg"
   xmlns="http://www.w3.org/2000/svg"
   xmlns:sodipodi="http://sodipodi.sourceforge.net/DTD/sodipodi-0.dtd"
   xmlns:inkscape="http://www.inkscape.org/namespaces/inkscape"
   id="svg2"
   version="1.1"
   inkscape:version="0.48.4 r9939"
   width="765"
   height="990"
   xml:space="preserve"
   sodipodi:docname="icosidodecahedron.eps"><metadata
     id="metadata8"><rdf:RDF><cc:Work
         rdf:about=""><dc:format>image/svg+xml</dc:format><dc:type
           rdf:resource="http://purl.org/dc/dcmitype/StillImage" /><dc:title></dc:title></cc:Work></rdf:RDF></metadata><defs
     id="defs6" /><sodipodi:namedview
     pagecolor="#ffffff"
     bordercolor="#666666"
     borderopacity="1"
     objecttolerance="10"
     gridtolerance="10"
     guidetolerance="10"
     inkscape:pageopacity="0"
     inkscape:pageshadow="2"
     inkscape:window-width="1600"
     inkscape:window-height="798"
     id="namedview4"
     showgrid="false"
     inkscape:zoom="0.67425131"
     inkscape:cx="257.33572"
     inkscape:cy="673.48411"
     inkscape:window-x="0"
     inkscape:window-y="31"
     inkscape:window-maximized="1"
     inkscape:current-layer="g10" /><g
     id="g10"
     inkscape:groupmode="layer"
     inkscape:label="ink_ext_XXXXXX"
     transform="matrix(1.25,0,0,-1.25,0,990)"><path
       inkscape:connector-curvature="0"
       d="m 401.32942,643.75405 -62.723,-6.592 37.071,-51.024 m 88.375,51.024 -62.723,6.592 75.835,-68.283 m -75.835,68.283 -25.652,-57.616 46.869,-42.201 m 54.618,31.534 -75.835,68.283 21.217,-99.817 m -185.428,166.96 -46.8696,-42.201 25.6524,-57.616 m 75.8362,68.283 -75.8362,-68.283 62.7232,6.592 m 13.113,61.691 -54.619,31.534 -21.2172,-99.817 m 122.7052,26.082 -46.869,42.201 -13.113,-61.691 m -125.4467,-301.682 62.7231,6.593 13.1126,61.691 m -101.488,-10.667 101.488,10.667 -54.6189,31.534 m -46.8691,-42.201 25.6523,-57.617 75.8357,68.284 m -13.1126,-61.691 59.9816,19.489 -46.869,42.202 m 101.489,-73.736 59.981,-19.489 37.071,51.023 m -97.052,31.534 97.052,-31.534 -37.071,51.024 m -59.981,-82.558 97.052,31.534 -97.052,31.534 m -54.62,-31.534 54.62,-31.534 0,63.068 m 49.61,-131.351 13.113,-61.69 46.869,42.201 m -148.358,-31.535 46.869,-42.201 54.62,31.535 m -75.836,68.282 75.836,-68.282 -13.113,61.69 m -62.723,6.592 -25.653,-57.616 101.489,-10.666 m -114.601,-51.0242 -54.6193,-31.534399 54.6193,-31.5339 m 59.981,82.557499 -46.869,42.201 -13.112,-61.6902 m 97.053,-31.533999 -97.053,-31.5343 59.982,-19.4895 m -0.001,102.046999 -59.981,-82.557499 97.053,31.5343 m -37.072,51.023199 -59.981,-19.4892 0,-63.068299 m 122.705,89.150499 -62.724,-6.593 37.072,-51.023199 m -83.941,93.224199 -37.07,51.024 -59.9824,-19.489 m 59.9824,-82.5584 37.07,51.0234 -97.0524,31.535 m 0,-63.069 59.9824,-19.4894 -59.9824,82.5584 m 0,-63.069 0,63.069 -54.6188,-31.535 m 177.3242,57.616 59.982,19.49 -46.869,42.201 m -38.766,-119.307 25.653,57.616 -62.723,-6.592 m 0,0 62.723,6.592 -88.376,51.024 m 88.376,-51.024 13.113,61.691 -54.62,31.534 m -46.869,-42.201 88.376,-51.024 -41.507,93.225 m -83.9394,-93.225 62.7234,-6.592 -25.653,57.616 m 49.611,317.801 -54.6193,-31.534 54.6193,-31.534 m 59.982,82.558 -59.982,-19.49 0,-63.068 m 97.053,31.534 -37.071,51.024 -59.982,-82.558 m 59.981,-19.49 37.072,51.024 -97.053,-31.534 m 59.981,-19.49 -59.981,19.49 13.112,-61.691 m 109.593,35.609 -25.652,57.616 -37.072,-51.024 m 101.489,-73.735 -46.869,42.201 -13.113,-61.69 m 13.113,61.69 -54.62,31.534 -46.869,-42.201 m 25.653,-57.616 75.836,68.283 -101.489,-10.667 m 88.376,-51.023 13.113,61.69 -75.836,-68.283 m -122.7054,89.15 -54.6188,-31.534 54.6188,-31.534 m 0,63.068 0,-63.068 59.9824,82.558 m -59.9824,-82.558 59.9824,-19.489 37.07,51.023 m -37.07,51.024 -59.9824,-82.558 97.0524,31.534 m 38.766,-119.307 46.869,42.202 -59.982,19.489 m -41.507,-93.225 54.62,31.534 -13.113,61.691 m -88.376,-51.023 46.869,-42.202 -21.216,99.818 m 21.216,-99.818 41.507,93.225 -62.723,6.593 m 0,0 62.723,-6.593 -25.653,57.616 m -99.7934,-57.616 37.0704,-51.023 25.653,57.616"
       style="fill:#d9d9ff;fill-opacity:1;fill-rule:nonzero;stroke:none"
       id="path124" /><path
       id="path244"
       style="fill:none;stroke:#000000;stroke-width:1;stroke-linecap:butt;stroke-linejoin:miter;stroke-miterlimit:10;stroke-opacity:1;stroke-dasharray:5.66929, 2.83465, 1.41732, 2.83465;stroke-dashoffset:0"
       d="m 401.32942,643.75405 -62.723,-6.592 m 125.446,0 -62.723,6.592 m 0,0 -25.652,-57.616 m 46.869,-42.201 54.618,31.534 m -240.046,135.426 -46.8696,-42.201 m 25.6524,-57.616 62.7232,6.592 m 13.113,61.691 -13.113,-61.691 m 59.982,19.49 -46.869,42.201 m -138.5597,-363.373 62.7231,6.593 m -41.5063,93.225 -46.8691,-42.201 m 101.488,10.667 -13.1126,-61.691 m 174.5826,-31.534 37.071,51.023 m -37.071,51.024 -59.981,-19.49 m 0,-63.068 0,63.068 m 62.723,-193.041 46.869,42.201 m -101.489,-73.736 54.62,31.535 m -13.113,61.69 -62.723,6.592 m 75.836,-68.282 -13.113,61.69 m -156.1073,-144.248599 54.6193,-31.5339 m 13.112,124.758499 -13.112,-61.6902 m 59.981,19.4892 -46.869,42.201 m -13.112,-61.6902 0,-63.068299 m 59.981,82.557499 -59.981,-19.4892 m 59.981,19.4892 37.072,-51.023199 m -180.9934,61.690199 59.9824,-19.4894 m -59.9824,82.5584 -54.6188,-31.535 m 54.6188,-31.534 0,63.069 m 182.6874,45.571 -46.869,42.201 m -75.836,-68.283 37.07,-51.024 m 0,0 25.653,57.616 m -62.723,-6.592 62.723,6.592 m 13.113,61.691 -54.62,31.534 m 41.507,-93.225 13.113,61.691 m -54.62,31.534 -46.869,-42.201 m 25.653,-57.616 -25.653,57.616 m -37.0704,-51.024 62.7234,-6.592 m -30.6613,343.883 54.6193,-31.534 m 0,63.068 0,-63.068 m 59.982,82.558 -59.982,-19.49 m 97.053,-31.534 -37.071,51.024 m -0.001,-102.048 -59.981,19.49 m 97.053,31.534 -37.072,-51.024 m 62.724,-6.592 -25.652,57.616 m 4.435,-144.248 59.982,19.489 m -101.489,73.735 -46.869,-42.201 m 101.489,10.667 -54.62,31.534 m 41.507,-93.224 13.113,61.69 m -198.5414,20.867 -54.6188,-31.534 m 54.6188,31.534 0,-63.068 m 0,0 59.9824,-19.489 m 37.07,51.023 -37.07,51.024 m 122.705,-128.129 -59.982,19.489 m 13.113,-61.691 -13.113,61.691 m -41.507,-93.225 54.62,31.534 m -101.489,10.668 46.869,-42.202 m 15.854,150.841 -37.07,-51.023 m 62.723,-6.593 -25.653,57.616 m -37.07,-51.023 62.723,-6.593 m -88.376,-51.023 25.653,57.616 m -62.7234,-6.593 37.0704,-51.023" /><path
       inkscape:connector-curvature="0"
       d="m 338.60642,637.16205 0,0 m 88.948,-295.09 0,0 m -61.553,63.499 24.482,-12.475 0,0 37.071,-51.024 6.271,-39.594 -3.747,-5.158 -39.595,-6.271 0,0 -59.981,19.489 m 109.592,-87.772 0,0 z m -4.467,-42.166 0,0 m -42.402,-0.035 0,0 m -30.405,83.044 17.292,-21.354 0,0 59.982,-19.489 -4.467,-42.166 -42.402,-0.035 -7.112,-26.541 m -122.454,-1.439 14.965,-23.0442 -54.6193,-31.534399 0,0 10.3753,-38.7218 5.522,-3.18793 38.722,10.37583 0,0 59.982,-19.4895 37.071,51.0238 25.652,57.616199 -62.724,-6.593 m 35.806,147.241 2.96,-27.934 0,0 -59.982,-19.49 0,0 m -88.376,51.024 0,0 m 62.723,-108.64 -37.07,-51.0234 0,0 -35.7191,-18.1992 -6.0637,1.9699 -18.1996,35.7187 0,0 -54.6188,31.534 0,0 10.3754,38.722 5.5215,3.188 38.7219,-10.375 0,0 59.9824,19.489 0,0 m -43.9101,-14.267 -18.8133,20.859 0,0 37.0704,51.024 1.438,27.44 m 48.173,227.293 0,0 m -41.483,-8.782 0,0 m 0.114,47.966 -21.3542,17.292 -25.6524,57.616 0,0 2.0981,40.033 4.7379,4.266 40.0336,-2.098 0,0 54.619,-31.534 0,0 42.402,-0.035 0,0 4.467,-42.166 0,0 28.398,31.487 0,0 34.325,-24.895 0,0 31.154,25.228 6.341,-0.667 25.228,-31.153 0,0 13.112,-61.691 0,0 -10.375,-38.722 -5.521,-3.188 -38.722,10.376 -46.869,42.201 0,0 m 34.31,-30.894 -8.658,-26.722 0,0 -62.724,6.592 m 101.489,-73.735 0,0 z m -21.231,-36.704 0,0 m -32.75,105.446 7.112,-26.541 0,0 46.869,-42.201 -21.231,-36.704 -38.751,17.215 -62.723,-6.593 m -35.584,104.341 -27.139,4.299 0,0 -59.9824,-19.49 0,0 -41.4828,8.782 0,0 -13.136,-40.316 0,0 54.6188,-31.534 0,0 12.4746,-24.483 m 71.4658,180.776 0,0 -54.6193,-31.534 13.1363,-40.316 41.483,8.782 13.112,-61.691 0,0 m 71.569,-52.79 14.066,-24.315 0,0 -46.869,-42.202 m -54.62,-31.534 -59.9816,-19.489 -25.2281,-31.154 -6.3407,-0.667 -31.1543,25.228 0,0 -25.6523,57.617 0,0 2.09805,40.033 4.73828,4.266 40.03277,-2.098 54.6189,-31.534 0,0 m -39.9837,23.084 2.9133,27.939 0,0 62.7234,6.593"
       style="fill:none;stroke:#000000;stroke-width:1;stroke-linecap:butt;stroke-linejoin:miter;stroke-miterlimit:10;stroke-opacity:1;stroke-dasharray:none"
       id="path292" /></g></svg>