<?xml version="1.0" encoding="UTF-8" standalone="no"?>
<!-- Created with Inkscape (http://www.inkscape.org/) -->

<svg
   xmlns:dc="http://purl.org/dc/elements/1.1/"
   xmlns:cc="http://creativecommons.org/ns#"
   xmlns:rdf="http://www.w3.org/1999/02/22-rdf-syntax-ns#"
   xmlns:svg="http://www.w3.org/2000/svg"
   xmlns="http://www.w3.org/2000/svg"
   xmlns:sodipodi="http://sodipodi.sourceforge.net/DTD/sodipodi-0.dtd"
   xmlns:inkscape="http://www.inkscape.org/namespaces/inkscape"
   id="svg2"
   version="1.1"
   inkscape:version="0.48.4 r9939"
   width="765"
   height="990"
   xml:space="preserve"
   sodipodi:docname="rhombi_cuboctahedron.eps"><metadata
     id="metadata8"><rdf:RDF><cc:Work
         rdf:about=""><dc:format>image/svg+xml</dc:format><dc:type
           rdf:resource="http://purl.org/dc/dcmitype/StillImage" /><dc:title></dc:title></cc:Work></rdf:RDF></metadata><defs
     id="defs6" /><sodipodi:namedview
     pagecolor="#ffffff"
     bordercolor="#666666"
     borderopacity="1"
     objecttolerance="10"
     gridtolerance="10"
     guidetolerance="10"
     inkscape:pageopacity="0"
     inkscape:pageshadow="2"
     inkscape:window-width="1600"
     inkscape:window-height="798"
     id="namedview4"
     showgrid="false"
     inkscape:zoom="0.67425131"
     inkscape:cx="322.3952"
     inkscape:cy="525.6524"
     inkscape:window-x="0"
     inkscape:window-y="31"
     inkscape:window-maximized="1"
     inkscape:current-layer="g10" /><g
     id="g10"
     inkscape:groupmode="layer"
     inkscape:label="ink_ext_XXXXXX"
     transform="matrix(1.25,0,0,-1.25,0,990)"><path
       inkscape:connector-curvature="0"
       d="m 340.32603,97.954181 66.235,38.345999 -66.326,38.1887 m -0.453,382.677 66.236,38.346 -66.326,38.19 m 76.897,-306.051 -0.09,76.535 -76.445,-76.626 m 0,0 76.445,76.626 -76.536,-0.091 m -229.8777,229.335 76.4449,76.625 -76.5352,-0.09 m 0.0903,-76.535 76.5355,0.09 -0.0906,76.535 m 76.6258,-76.444 76.536,0.091 -76.627,76.444 m 0.091,-76.535 -76.6258,76.444 0.0906,-76.535 m 76.5352,0.091 -0.091,76.535 -76.5348,-0.091 m 219.8508,-420.684 -66.327,38.189 0.09,-76.535 m -0.181,153.07 -76.445,-76.626 76.536,0.091 m 0.09,-76.535 -0.09,76.535 -76.445,-76.626 m 0,0 76.445,76.626 -76.536,-0.091 m 142.681,114.972 -66.326,38.19 0.09,-76.536 m 0,0 -76.535,-0.09 0.09,-76.536 m 76.355,153.162 -76.445,-76.626 76.535,0.09 m -0.09,76.536 -76.536,-0.091 0.091,-76.535 m 76.354,153.161 0.091,-76.535 76.444,76.626 m -76.444,-76.626 -76.626,76.444 0.09,-76.535 m 0,0 -76.6255,76.445 0.0906,-76.535 m 76.5349,0.09 -0.09,76.535 -76.5355,-0.09 m 153.0705,0.181 -76.626,76.445 0.091,-76.536 m 76.626,-76.444 -0.091,76.535 -76.535,-0.091 m 153.523,-382.495 -0.091,76.535 -76.444,-76.626 m 0,0 76.444,76.626 -76.535,-0.09 m 0.091,-76.536 -0.091,76.536 -76.445,-76.626 m 0,0 76.627,-76.444699 -0.091,76.534699 m -76.536,-0.09 76.445,76.626 -76.535,-0.091 m -76.5354,-0.09 76.6254,-76.445 -0.09,76.535 m 76.173,306.232 -0.09,76.536 -76.536,-0.091 m 76.536,0.091 76.535,0.09 -76.626,76.445 m -76.536,-0.091 76.627,-76.444 -0.091,76.535 m -76.354,-153.162 -0.091,76.536 -66.236,-38.346 m -9.8464,-344.421 0.0906,-76.536 76.5348,0.091 m 152.618,382.858 -76.444,-76.626 76.535,0.09 m -0.181,153.071 76.535,0.09 -76.626,76.445 m 0,0 76.626,-76.445 -0.09,76.536 m -153.071,-0.181 76.626,-76.445 -0.091,76.535 m -152.708,-306.322 -76.4451,-76.626 76.5351,0.09 m -0.09,76.536 -76.5353,-0.091 0.0902,-76.535 m 76.4451,76.626 -0.091,76.535 -66.2361,-38.346 m 66.4171,-114.725 -66.2358,-38.346 66.3268,-38.189 m 0.181,-153.070399 76.536,0.0907 -76.627,76.444699 m -66.236,-38.3463 66.327,-38.189099 -0.091,76.535399"
       style="fill:#d9d9ff;fill-opacity:1;fill-rule:nonzero;stroke:none"
       id="path100" /><path
       id="path196"
       style="fill:none;stroke:#ff0e0e;stroke-width:1;stroke-linecap:butt;stroke-linejoin:miter;stroke-miterlimit:10;stroke-opacity:1;stroke-dasharray:5.66929000000000016, 2.83464999999999989, 1.41731999999999991, 2.83464999999999989;stroke-dashoffset:0"
       d="m 340.32603,97.954181 66.235,38.345999 m -0.543,459.2117 -66.326,38.19 m 76.897,-306.051 -0.09,76.535 m -229.9688,305.869 0.0906,-76.535 m 76.5352,0.091 -0.091,76.535 m 77.079,-459.121 66.237,38.346 m 0,0 -66.327,38.189 m 0,0 -0.091,76.535 m 0.181,-153.07 -0.09,76.535 m 0,0 -76.536,-0.091 m 76.445,76.626 66.236,38.346 m -66.236,-38.346 -0.09,76.536 m -76.445,-76.626 76.535,0.09 m 76.354,153.162 -76.535,-0.091 m -76.445,-76.626 76.536,0.091 m -153.0709,-0.181 76.5349,0.09 m -76.6255,76.445 0.0906,-76.535 m 76.4449,76.625 -76.5355,-0.09 m 76.6255,-76.445 -0.09,76.535 m 76.535,0.091 -76.535,-0.091 m 76.626,-76.444 -0.091,76.535 m 0.453,-382.677 76.535,0.091 m 0,0 -0.091,76.535 m -76.444,-76.626 -0.091,76.536 m 0.091,-76.536 -76.536,-0.09 m 76.627,-76.444699 -0.091,76.534699 m -0.091,76.536 -76.535,-0.091 m 0,0 -76.5354,-0.09 m 76.6254,-76.445 -0.09,76.535 m 76.083,382.768 -76.536,-0.091 m 76.626,-76.445 -0.09,76.536 m 0,0 -0.091,76.535 m -76.445,-76.626 -66.236,-38.346 m 66.327,-38.19 -0.091,76.536 m -75.9918,-459.303 76.5348,0.091 m -76.6254,76.445 0.0906,-76.536 m 229.2438,306.413 -0.091,76.536 m -76.444,-76.626 76.535,0.09 m -0.181,153.071 -0.091,76.535 m -152.618,-382.858 -0.09,76.536 m -76.5353,-0.091 0.0902,-76.535 m 10.118,114.815 66.3271,-38.189 m 0,0 -0.091,76.535 m 0.272,-229.606 -0.091,76.535 m 0,0 -66.2358,-38.346 m 66.5078,-191.259399 76.536,0.0907 m -76.536,-0.0907 -0.091,76.535399 m -66.236,-38.3463 66.327,-38.189099" /><path
       id="path232"
       style="fill:none;stroke:#000000;stroke-width:1;stroke-linecap:butt;stroke-linejoin:miter;stroke-miterlimit:10;stroke-opacity:1;stroke-dasharray:none"
       d="m 339.69203,633.70188 76.535,0.09 76.535,0.09 -0.09,76.536 -76.536,-0.091 -76.535,-0.09 -76.536,-0.091 -76.5348,-0.091 -76.5352,-0.09 0.0903,-76.535 76.5355,0.09 76.5352,0.091 m 142.817,0.169 0.045,-38.268 0,0 -66.236,-38.346 m 0.272,-229.606 76.535,0.091 42.49,24.599 -0.032,27.437 -42.548,24.499 0,0 -76.536,-0.091 m 66.463,-152.992 -0.045,38.268 -0.046,38.268 m -0.136,114.802 0,0 z m -200.393,147.707 -19.0945,-33.163 0,0 -42.4907,-24.599 0.0325,-27.438 42.5488,-24.498 0,0 19.1729,-33.118 m 210.795,-272.752 0,0 m -19.094,-33.1632 19.094,33.1632 42.491,24.599 -0.033,27.438 -42.549,24.498 0,0 -76.535,-0.09 m -153.0704,-0.181 0,0 z m 9.8011,382.688 0.0453,-38.267 0,0 66.327,-38.19 0,0 m -57.079,-273.068 -19.0944,-33.163 -42.4907,-24.6 0.0325,-27.437 42.5488,-24.499 0,0 19.1728,-33.1178 m 190.976,306.3678 19.095,33.163 0,0 42.491,24.599 -0.033,27.438 -42.549,24.499 0,0 -19.173,33.118 m 9.101,-186.201 -0.046,38.267 -66.326,38.19 0,0 m -152.8901,-153.252 0,0 z m 10.1633,76.548 -0.0453,38.267 0,0 66.2361,38.346 m -66.1002,-153.149 0.0454,-38.268 0,0 66.3268,-38.189 0,0 m -0.181,153.071 -76.5353,-0.091 -42.4906,-24.599 0.0324,-27.438 42.5484,-24.498 76.5351,0.09 0,0 m 76.717,-152.98 0,0 66.326,-38.1887 0,0 0.059,-49.097599 -23.746,-13.7469 -42.548,24.4985 0,0 -24.499,-42.548878 -27.438,-0.03242 -24.599,42.4906 0,0 -42.491,-24.5992 -23.778,13.691 -0.058,49.097297 0,0 66.236,38.3463" /></g></svg>