<?xml version="1.0" encoding="UTF-8" standalone="no"?>
<!-- Created with Inkscape (http://www.inkscape.org/) -->

<svg
   xmlns:dc="http://purl.org/dc/elements/1.1/"
   xmlns:cc="http://creativecommons.org/ns#"
   xmlns:rdf="http://www.w3.org/1999/02/22-rdf-syntax-ns#"
   xmlns:svg="http://www.w3.org/2000/svg"
   xmlns="http://www.w3.org/2000/svg"
   xmlns:sodipodi="http://sodipodi.sourceforge.net/DTD/sodipodi-0.dtd"
   xmlns:inkscape="http://www.inkscape.org/namespaces/inkscape"
   sodipodi:docname="stpauls.svg"
   xml:space="preserve"
   height="990"
   width="765"
   inkscape:version="0.48.4 r9939"
   version="1.1"
   id="svg2"><metadata
     id="metadata8"><rdf:RDF><cc:Work
         rdf:about=""><dc:format>image/svg+xml</dc:format><dc:type
           rdf:resource="http://purl.org/dc/dcmitype/StillImage" /><dc:title /></cc:Work></rdf:RDF></metadata><defs
     id="defs6"><clipPath
       clipPathUnits="userSpaceOnUse"
       id="clipPath16"><path
         d="m 0,841.89 595.276,0 L 595.276,0 0,0 0,841.89 z"
         id="path18"
         inkscape:connector-curvature="0" /></clipPath></defs><sodipodi:namedview
     pagecolor="#ffffff"
     bordercolor="#666666"
     borderopacity="1"
     objecttolerance="10"
     gridtolerance="10"
     guidetolerance="10"
     inkscape:pageopacity="0"
     inkscape:pageshadow="2"
     inkscape:window-width="1547"
     inkscape:window-height="876"
     id="namedview4"
     showgrid="false"
     inkscape:zoom="1"
     inkscape:cx="220.61434"
     inkscape:cy="601.9154"
     inkscape:window-x="53"
     inkscape:window-y="24"
     inkscape:window-maximized="1"
     inkscape:current-layer="g10"
     units="in" /><g
     id="g10"
     inkscape:groupmode="layer"
     inkscape:label="StPauls"
     transform="matrix(1.25,0,0,-1.25,0,990)"
     style="display:inline"><g
       id="g24"
       transform="translate(306.46416,633.57854)" /><g
       id="g1096"
       transform="translate(308.09306,548.75864)" /><g
       id="g1052"
       transform="translate(312.17366,633.63704)" /><path
       inkscape:connector-curvature="0"
       id="path22"
       style="fill:none;stroke:#231f20;stroke-width:0.5;stroke-linecap:butt;stroke-linejoin:miter;stroke-miterlimit:4;stroke-opacity:1;stroke-dasharray:none"
       d="m 560.37876,66.002845 c 0,-15.656 -12.691,-28.348 -28.348,-28.348 l -447.874006,0 c -15.655,0 -28.346,12.692 -28.346,28.348 l 0,663.305995 c 0,15.656 12.691,28.347 28.346,28.347 l 447.874006,0 c 15.657,0 28.348,-12.691 28.348,-28.347 l 0,-663.305995 z" /><g
       transform="matrix(1,0,0,-1,10.456854,-23.290158)"
       style="font-size:34.16119003px;font-style:normal;font-variant:normal;font-weight:normal;font-stretch:normal;line-height:125%;letter-spacing:0px;word-spacing:0px;fill:#000000;fill-opacity:1;stroke:#000000;stroke-width:0.86400002;stroke-miterlimit:4;stroke-opacity:1;stroke-dasharray:none;font-family:DejaVu Sans;-inkscape-font-specification:DejaVu Sans"
       id="text14537"><path
         d="m 78.550983,-169.65908 -6.183175,-0.0342 c -0.478257,0 -0.85403,0.37577 -0.85403,0.85403 l 0,3.34779 c 0,0.47826 0.375773,0.85403 0.85403,0.85403 l 1.16148,0 c 0.478256,0 0.85403,0.37578 0.85403,0.85403 l 0,21.17994 c 0,0.47826 0.375773,0.85403 0.85403,0.85403 l 3.313635,0 c 0.478256,0 0.85403,-0.37577 0.85403,-0.85403 l 0,-26.20163 c 0,-0.47826 -0.375774,-0.85403 -0.85403,-0.85403 m 13.083736,4.85089 c -0.06832,-2.66457 -2.254641,-4.85089 -4.987534,-4.85089 l -2.322961,0 -1.571415,0 c -0.444095,0 -0.819868,0.37577 -0.819868,0.85403 l 0,3.31363 c 0,0.47826 0.375773,0.85403 0.819868,0.85403 l 3.006185,0 c 0.478256,0 0.85403,0.37578 0.85403,0.85403 l 0,4.71425 c 0,0.47825 -0.375774,0.85403 -0.85403,0.85403 l -3.006185,0 c -0.444095,0 -0.819868,0.37577 -0.819868,0.85403 l 0,3.24531 c 0,0.47826 0.375773,0.85403 0.819868,0.85403 l 4.919212,0 c 2.220475,-0.34161 3.962698,-2.18632 3.962698,-4.54344 l 0,-6.8664 c 0,-0.0683 0,-0.10248 0,-0.13664"
         style="fill:#000000;fill-opacity:1;stroke:#000000;stroke-width:0.86400002;stroke-miterlimit:4;stroke-dasharray:none;font-family:WC Wunderbach Rounded;-inkscape-font-specification:WC Wunderbach Rounded"
         id="path3023"
         inkscape:connector-curvature="0" /><path
         d="m 94.793028,-146.73692 c 0,2.80121 2.22048,4.98753 4.987534,4.98753 l 0.06832,0 0,-27.94385 c -2.732892,0 -4.919211,2.15215 -4.987533,4.88505 l -0.06832,18.07127 m 12.707961,-22.95632 -2.83538,0 -1.46893,0 c -0.47826,0 -0.85403,0.40993 -0.85403,0.85403 l 0,3.34779 c 0,0.4441 0.37577,0.81987 0.85403,0.81987 l 3.41612,0 c 0.47826,0 0.85403,0.40994 0.85403,0.85403 l -0.0683,16.22657 c 0,0.44409 -0.37578,0.81987 -0.85403,0.81987 l -3.3478,0 c -0.47826,0 -0.85403,0.40993 -0.85403,0.85403 l 0,3.34779 c 0,0.4441 0.37577,0.81987 0.85403,0.81987 l 4.23599,0 c 3.0745,0 4.98753,-2.42545 4.98753,-5.46579 0,-2.86954 0.0683,-16.6365 0.0683,-16.6365 0,-3.17699 -1.60557,-5.84156 -4.98753,-5.84156"
         style="fill:#000000;fill-opacity:1;stroke:#000000;stroke-width:0.86400002;stroke-miterlimit:4;stroke-dasharray:none;font-family:WC Wunderbach Rounded;-inkscape-font-specification:WC Wunderbach Rounded"
         id="path3025"
         inkscape:connector-curvature="0" /><path
         d="m 122.58689,-169.65908 -6.18317,-0.0342 c -0.47826,0 -0.85403,0.37577 -0.85403,0.85403 l 0,3.34779 c 0,0.47826 0.37577,0.85403 0.85403,0.85403 l 1.16148,0 c 0.47826,0 0.85403,0.37578 0.85403,0.85403 l 0,21.17994 c 0,0.47826 0.37577,0.85403 0.85403,0.85403 l 3.31363,0 c 0.47826,0 0.85403,-0.37577 0.85403,-0.85403 l 0,-26.20163 c 0,-0.47826 -0.37577,-0.85403 -0.85403,-0.85403 m 13.08374,4.85089 c -0.0683,-2.66457 -2.25464,-4.85089 -4.98753,-4.85089 l -2.32296,0 -1.57142,0 c -0.44409,0 -0.81987,0.37577 -0.81987,0.85403 l 0,3.31363 c 0,0.47826 0.37578,0.85403 0.81987,0.85403 l 3.00619,0 c 0.47825,0 0.85403,0.37578 0.85403,0.85403 l 0,4.71425 c 0,0.47825 -0.37578,0.85403 -0.85403,0.85403 l -3.00619,0 c -0.44409,0 -0.81987,0.37577 -0.81987,0.85403 l 0,3.24531 c 0,0.47826 0.37578,0.85403 0.81987,0.85403 l 4.91921,0 c 2.22048,-0.34161 3.9627,-2.18632 3.9627,-4.54344 l 0,-6.8664 c 0,-0.0683 0,-0.10248 0,-0.13664"
         style="fill:#000000;fill-opacity:1;stroke:#000000;stroke-width:0.86400002;stroke-miterlimit:4;stroke-dasharray:none;font-family:WC Wunderbach Rounded;-inkscape-font-specification:WC Wunderbach Rounded"
         id="path3027"
         inkscape:connector-curvature="0" /><path
         d="m 146.27608,-146.77108 -0.8882,0 c -0.47825,0 -0.85403,-0.37578 -0.85403,-0.85403 l 0,-21.28243 c 0,-0.47825 -0.37577,-0.85403 -0.81986,-0.85403 l -3.3478,0 c -0.47826,0 -0.85403,0.37578 -0.85403,0.85403 l 0,22.17062 c 0,2.73289 2.25464,4.98753 4.98753,4.98753 l 1.63974,0 0.13665,0 c 0.47825,0 0.85403,-0.37577 0.85403,-0.85403 l 0,-3.31363 c 0,-0.47826 -0.37578,-0.85403 -0.85403,-0.85403 m 10.00922,-22.99049 -3.31363,0 c -0.47826,0 -0.85403,0.37578 -0.85403,0.85403 l 0,21.28243 c 0,0.47825 -0.37577,0.85403 -0.85403,0.85403 l -0.78571,0 c -0.47825,0 -0.85403,0.37577 -0.85403,0.85403 l 0,3.31363 c 0,0.47826 0.37578,0.85403 0.85403,0.85403 l 1.6739,0 c 2.73289,0 4.98753,-2.2888 4.98753,-4.98753 l 0,-17.59302 0,-4.5776 c 0,-0.47825 -0.37577,-0.85403 -0.85403,-0.85403"
         style="fill:#000000;fill-opacity:1;stroke:#000000;stroke-width:0.86400002;stroke-miterlimit:4;stroke-dasharray:none;font-family:WC Wunderbach Rounded;-inkscape-font-specification:WC Wunderbach Rounded"
         id="path3029"
         inkscape:connector-curvature="0" /><path
         d="m 167.75706,-169.65908 -6.18317,-0.0342 c -0.47826,0 -0.85403,0.37577 -0.85403,0.85403 l 0,3.34779 c 0,0.47826 0.37577,0.85403 0.85403,0.85403 l 1.16148,0 c 0.47825,0 0.85403,0.37578 0.85403,0.85403 l 0,21.17994 c 0,0.47826 0.37577,0.85403 0.85403,0.85403 l 3.31363,0 c 0.47826,0 0.85403,-0.37577 0.85403,-0.85403 l 0,-26.20163 c 0,-0.47826 -0.37577,-0.85403 -0.85403,-0.85403 m 13.08374,4.85089 c -0.0683,-2.66457 -2.25464,-4.85089 -4.98754,-4.85089 l -2.32296,0 -1.57141,0 c -0.4441,0 -0.81987,0.37577 -0.81987,0.85403 l 0,3.31363 c 0,0.47826 0.37577,0.85403 0.81987,0.85403 l 3.00618,0 c 0.47826,0 0.85403,0.37578 0.85403,0.85403 l 0,4.71425 c 0,0.47825 -0.37577,0.85403 -0.85403,0.85403 l -3.00618,0 c -0.4441,0 -0.81987,0.37577 -0.81987,0.85403 l 0,3.24531 c 0,0.47826 0.37577,0.85403 0.81987,0.85403 l 4.91921,0 c 2.22047,-0.34161 3.9627,-2.18632 3.9627,-4.54344 l 0,-6.8664 c 0,-0.0683 0,-0.10248 0,-0.13664"
         style="fill:#000000;fill-opacity:1;stroke:#000000;stroke-width:0.86400002;stroke-miterlimit:4;stroke-dasharray:none;font-family:WC Wunderbach Rounded;-inkscape-font-specification:WC Wunderbach Rounded"
         id="path3031"
         inkscape:connector-curvature="0" /><path
         d="m 183.99911,-146.73692 c 0,2.80121 2.22048,4.98753 4.98753,4.98753 l 0.0683,0 0,-27.94385 c -2.7329,0 -4.91922,2.15215 -4.98754,4.88505 l -0.0683,18.07127 m 12.70796,-22.95632 -2.83538,0 -1.46893,0 c -0.47825,0 -0.85403,0.40993 -0.85403,0.85403 l 0,3.34779 c 0,0.4441 0.37578,0.81987 0.85403,0.81987 l 3.41612,0 c 0.47826,0 0.85403,0.40994 0.85403,0.85403 l -0.0683,16.22657 c 0,0.44409 -0.37577,0.81987 -0.85403,0.81987 l -3.3478,0 c -0.47825,0 -0.85403,0.40993 -0.85403,0.85403 l 0,3.34779 c 0,0.4441 0.37578,0.81987 0.85403,0.81987 l 4.23599,0 c 3.0745,0 4.98753,-2.42545 4.98753,-5.46579 0,-2.86954 0.0683,-16.6365 0.0683,-16.6365 0,-3.17699 -1.60558,-5.84156 -4.98754,-5.84156"
         style="fill:#000000;fill-opacity:1;stroke:#000000;stroke-width:0.86400002;stroke-miterlimit:4;stroke-dasharray:none;font-family:WC Wunderbach Rounded;-inkscape-font-specification:WC Wunderbach Rounded"
         id="path3033"
         inkscape:connector-curvature="0" /><path
         d="m 214.21842,-146.77108 c -0.47826,0 -0.85403,0.37577 -0.85403,0.85403 l 0,3.27947 c 0,0.47826 0.37577,0.85403 0.85403,0.85403 l 7.44714,0 c 0.47825,0 0.85403,-0.37577 0.85403,-0.85403 l 0,-3.27947 c 0,-0.47826 -0.37578,-0.85403 -0.85403,-0.85403 l -7.44714,0 m -9.46265,-22.99049 c -0.17081,0 -0.54658,0.4441 -0.54658,0.8882 l 0,3.34779 c 0,0.40994 0.37577,0.81987 0.85403,0.81987 l -0.0683,0 c 0.47825,0 0.85403,0.40994 0.85403,0.85403 l 0,21.31658 c 0,0.4441 0.37577,0.81987 0.85402,0.81987 l 3.27948,0 c 0.47826,0 0.85403,-0.37577 0.85403,-0.81987 l 0,-26.33827 c 0,-0.4441 -0.37578,-0.8882 -1.16148,-0.8882 l -4.91921,0"
         style="fill:#000000;fill-opacity:1;stroke:#000000;stroke-width:0.86400002;stroke-miterlimit:4;stroke-dasharray:none;font-family:WC Wunderbach Rounded;-inkscape-font-specification:WC Wunderbach Rounded"
         id="path3035"
         inkscape:connector-curvature="0" /><path
         d="m 224.63224,-146.73692 c 0,2.80121 2.22048,4.98753 4.98754,4.98753 l 0.0683,0 0,-27.94385 c -2.73289,0 -4.91921,2.15215 -4.98754,4.88505 l -0.0683,18.07127 m 12.70797,-22.95632 -2.83538,0 -1.46893,0 c -0.47826,0 -0.85403,0.40993 -0.85403,0.85403 l 0,3.34779 c 0,0.4441 0.37577,0.81987 0.85403,0.81987 l 3.41611,0 c 0.47826,0 0.85403,0.40994 0.85403,0.85403 l -0.0683,16.22657 c 0,0.44409 -0.37577,0.81987 -0.85403,0.81987 l -3.34779,0 c -0.47826,0 -0.85403,0.40993 -0.85403,0.85403 l 0,3.34779 c 0,0.4441 0.37577,0.81987 0.85403,0.81987 l 4.23598,0 c 3.07451,0 4.98754,-2.42545 4.98754,-5.46579 0,-2.86954 0.0683,-16.6365 0.0683,-16.6365 0,-3.17699 -1.60558,-5.84156 -4.98753,-5.84156"
         style="fill:#000000;fill-opacity:1;stroke:#000000;stroke-width:0.86400002;stroke-miterlimit:4;stroke-dasharray:none;font-family:WC Wunderbach Rounded;-inkscape-font-specification:WC Wunderbach Rounded"
         id="path3037"
         inkscape:connector-curvature="0" /><path
         d="m 251.77704,-169.69324 -1.81054,0 c -2.76705,0 -5.0217,2.22048 -5.0217,4.98753 l -0.0342,17.96879 c 0,2.76705 2.22048,5.02169 4.95338,5.02169 l 1.29812,0 0.6149,0 c 0.4441,0 0.81987,-0.37577 0.81987,-0.85403 l 0,-3.34779 c 0,-0.4441 -0.37577,-0.81987 -0.81987,-0.81987 l -1.02483,0 c -0.4441,0 -0.81987,-0.37578 -0.81987,-0.85403 l 0.0342,-16.26073 c 0,-0.44409 0.40993,-0.81987 0.85403,-0.81987 l 0.95651,0 c 0.4441,0 0.81987,-0.37577 0.81987,-0.85403 l 0,-3.34779 c 0,-0.4441 -0.37577,-0.81987 -0.81987,-0.81987 m 9.90675,18.41288 -3.3478,0 c -0.44409,0 -0.85403,0.37577 -0.85403,0.81987 l 0,2.86954 c 0,0.47825 -0.37577,0.85403 -0.81987,0.85403 l -0.71738,0 c -0.4441,0 -0.85403,0.37577 -0.85403,0.81987 l 0,3.34779 c 0,0.47826 0.40993,0.85403 0.85403,0.85403 l 1.57141,0 c 2.76706,0 4.98754,-2.2888 4.98754,-4.98753 l 0,-2.08383 0,-1.6739 c 0,-0.4441 -0.37578,-0.81987 -0.81987,-0.81987 m 0,-7.07137 -7.03721,0 c -0.44409,0 -0.85403,0.37578 -0.85403,0.85403 l 0,3.27948 c 0,0.47825 0.40994,0.85403 0.85403,0.85403 l 7.03721,0 c 0.44409,0 0.81987,-0.37578 0.81987,-0.85403 l 0,-3.27948 c 0,-0.47825 -0.37578,-0.85403 -0.81987,-0.85403 m 0.88819,-6.45646 c -0.0683,-2.69873 -2.25464,-4.88505 -4.95337,-4.88505 l -1.02484,0 -0.64906,0 c -0.4441,0 -0.85403,0.37577 -0.85403,0.81987 l 0,3.34779 c 0,0.47826 0.40993,0.85403 0.85403,0.85403 l 0.78571,0 c 0.44409,0 0.85402,0.37578 0.85402,0.81987 l 0,1.19564 c 0,0.47826 0.37578,0.85403 0.81987,0.85403 l 3.27948,0 c 0.47825,0 0.85403,-0.37577 0.85403,-0.85403 l 0.0683,-2.01551 c 0,-0.0683 0,-0.10248 -0.0342,-0.13664"
         style="fill:#000000;fill-opacity:1;stroke:#000000;stroke-width:0.86400002;stroke-miterlimit:4;stroke-dasharray:none;font-family:WC Wunderbach Rounded;-inkscape-font-specification:WC Wunderbach Rounded"
         id="path3039"
         inkscape:connector-curvature="0" /><path
         d="m 271.31191,-160.26475 c -0.30745,-0.34162 -0.58074,-0.99068 -0.58074,-1.46894 l 0,-7.20801 c 0,-0.47825 -0.37578,-0.85403 -0.85403,-0.85403 l -3.3478,0 c -0.47826,0 -0.85403,0.37578 -0.85403,0.85403 l 0,9.18936 c 0,0.47826 0.27329,1.12732 0.58074,1.46893 l 4.81673,5.15834 c 0.34161,0.34162 0.58074,0.99068 0.58074,1.43477 l 0,9.05272 c 0,0.47826 0.37577,0.85403 0.85403,0.85403 l 3.34779,0 c 0.4441,0 0.81987,-0.37577 0.81987,-0.85403 l 0,-9.05272 c 0,-0.81986 0.71739,-1.43477 0.71739,-1.91302 0,-0.20497 -0.10249,-0.4441 -0.27329,-0.6149 l -5.8074,-6.04653 m 7.17385,-9.53098 c -0.47826,0 -0.85403,0.37578 -0.85403,0.85403 l 0,7.20801 c 0,0.47826 -0.23913,1.12732 -0.58074,1.46894 l -0.54658,0.54657 c -0.13665,0.17081 -0.23913,0.37578 -0.23913,0.61491 0,0.20496 0.10248,0.44409 0.23913,0.6149 l 2.32296,2.42544 c 0.1708,0.17081 0.37577,0.23913 0.58074,0.23913 0.20497,0 0.44409,-0.0683 0.58074,-0.23913 l 2.04967,-2.22048 c 0.34161,-0.37577 0.58074,-0.99067 0.58074,-1.46893 l 0,-9.18936 c 0,-0.47825 -0.37577,-0.85403 -0.85403,-0.85403 l -3.27947,0"
         style="fill:#000000;fill-opacity:1;stroke:#000000;stroke-width:0.86400002;stroke-miterlimit:4;stroke-dasharray:none;font-family:WC Wunderbach Rounded;-inkscape-font-specification:WC Wunderbach Rounded"
         id="path3041"
         inkscape:connector-curvature="0" /><path
         d="m 287.7333,-147.01021 c -0.47826,0 -0.85403,0.37577 -0.85403,0.85403 l 0,3.58692 c 0,0.47826 0.37577,0.85403 0.85403,0.85403 l 3.27947,0 c 0.47826,0 0.85403,-0.37577 0.85403,-0.85403 l 0,-3.58692 c 0,-0.47826 -0.37577,-0.85403 -0.85403,-0.85403 l -3.27947,0"
         style="fill:#000000;fill-opacity:1;stroke:#000000;stroke-width:0.86400002;stroke-miterlimit:4;stroke-dasharray:none;font-family:WC Wunderbach Rounded;-inkscape-font-specification:WC Wunderbach Rounded"
         id="path3043"
         inkscape:connector-curvature="0" /><path
         d="m 312.15107,-149.81143 -3.3478,0 c -0.47825,0 -0.85402,0.37577 -0.85402,0.85403 l 0,1.29812 c 0,0.47826 -0.37578,0.85403 -0.81987,0.85403 l -0.75155,0 c -0.47826,0 -0.85403,0.37578 -0.85403,0.81987 l 0,3.3478 c 0,0.47826 0.37577,0.85403 0.85403,0.85403 l 1.60558,0 c 2.76705,0 4.98753,-2.2888 4.98753,-4.98753 l 0,-1.19565 0,-0.99067 c 0,-0.47826 -0.37577,-0.85403 -0.81987,-0.85403 m 0.88819,-15.06509 c -0.0683,-2.69873 -2.25464,-4.88505 -4.95337,-4.88505 l -0.99067,0 -0.71739,0 c -0.47826,0 -0.85403,0.37578 -0.85403,0.81987 l 0,3.3478 c 0,0.47826 0.37577,0.85403 0.85403,0.85403 l 0.78571,0 c 0.47825,0 0.85403,0.37577 0.85403,0.81987 l 0,1.19564 c 0,0.47826 0.37577,0.85403 0.85403,0.85403 l 3.31363,0 c 0.47826,0 0.85403,-0.37577 0.85403,-0.85403 l 0,-2.01551 c 0,-0.0683 0,-0.10248 0,-0.13665 m -10.89742,-4.88505 -1.70806,0 c -2.76705,0 -4.98753,2.22048 -4.98753,4.98754 l 0,17.93462 c 0,2.7329 2.22048,4.98754 4.98753,4.98754 l 1.70806,0 c 0.47826,0 0.85403,-0.37578 0.85403,-0.81987 l 0,-3.3478 c 0,-0.47825 -0.37577,-0.85403 -0.85403,-0.85403 l -0.81987,0 c -0.47825,0 -0.85403,-0.37577 -0.85403,-0.81987 l 0,-16.22656 c 0,-0.4441 0.37578,-0.81987 0.85403,-0.81987 l 0.81987,0 c 0.47826,0 0.85403,-0.37577 0.85403,-0.85403 l 0,-3.3478 c 0,-0.44409 -0.37577,-0.81987 -0.85403,-0.81987"
         style="fill:#000000;fill-opacity:1;stroke:#000000;stroke-width:0.86400002;stroke-miterlimit:4;stroke-dasharray:none;font-family:WC Wunderbach Rounded;-inkscape-font-specification:WC Wunderbach Rounded"
         id="path3045"
         inkscape:connector-curvature="0" /><path
         d="m 315.10601,-146.73692 c 0,2.80121 2.22048,4.98753 4.98754,4.98753 l 0.0683,0 0,-27.94385 c -2.73289,0 -4.91921,2.15215 -4.98753,4.88505 l -0.0683,18.07127 m 12.70797,-22.95632 -2.83538,0 -1.46893,0 c -0.47826,0 -0.85403,0.40993 -0.85403,0.85403 l 0,3.34779 c 0,0.4441 0.37577,0.81987 0.85403,0.81987 l 3.41611,0 c 0.47826,0 0.85403,0.40994 0.85403,0.85403 l -0.0683,16.22657 c 0,0.44409 -0.37577,0.81987 -0.85403,0.81987 l -3.34779,0 c -0.47826,0 -0.85403,0.40993 -0.85403,0.85403 l 0,3.34779 c 0,0.4441 0.37577,0.81987 0.85403,0.81987 l 4.23598,0 c 3.07451,0 4.98754,-2.42545 4.98754,-5.46579 0,-2.86954 0.0683,-16.6365 0.0683,-16.6365 0,-3.17699 -1.60558,-5.84156 -4.98753,-5.84156"
         style="fill:#000000;fill-opacity:1;stroke:#000000;stroke-width:0.86400002;stroke-miterlimit:4;stroke-dasharray:none;font-family:WC Wunderbach Rounded;-inkscape-font-specification:WC Wunderbach Rounded"
         id="path3047"
         inkscape:connector-curvature="0" /><path
         d="m 337.70739,-147.01021 c -0.47826,0 -0.85403,0.37577 -0.85403,0.85403 l 0,3.58692 c 0,0.47826 0.37577,0.85403 0.85403,0.85403 l 3.27947,0 c 0.47826,0 0.85403,-0.37577 0.85403,-0.85403 l 0,-3.58692 c 0,-0.47826 -0.37577,-0.85403 -0.85403,-0.85403 l -3.27947,0"
         style="fill:#000000;fill-opacity:1;stroke:#000000;stroke-width:0.86400002;stroke-miterlimit:4;stroke-dasharray:none;font-family:WC Wunderbach Rounded;-inkscape-font-specification:WC Wunderbach Rounded"
         id="path3049"
         inkscape:connector-curvature="0" /><path
         d="m 353.31156,-146.77108 -0.88819,0 c -0.47826,0 -0.85403,-0.37578 -0.85403,-0.85403 l 0,-21.28243 c 0,-0.47825 -0.37577,-0.85403 -0.81987,-0.85403 l -3.3478,0 c -0.47825,0 -0.85403,0.37578 -0.85403,0.85403 l 0,22.17062 c 0,2.73289 2.25465,4.98753 4.98754,4.98753 l 1.63973,0 0.13665,0 c 0.47826,0 0.85403,-0.37577 0.85403,-0.85403 l 0,-3.31363 c 0,-0.47826 -0.37577,-0.85403 -0.85403,-0.85403 m 10.00923,-22.99049 -3.31364,0 c -0.47825,0 -0.85403,0.37578 -0.85403,0.85403 l 0,21.28243 c 0,0.47825 -0.37577,0.85403 -0.85403,0.85403 l -0.7857,0 c -0.47826,0 -0.85403,0.37577 -0.85403,0.85403 l 0,3.31363 c 0,0.47826 0.37577,0.85403 0.85403,0.85403 l 1.67389,0 c 2.7329,0 4.98754,-2.2888 4.98754,-4.98753 l 0,-17.59302 0,-4.5776 c 0,-0.47825 -0.37578,-0.85403 -0.85403,-0.85403"
         style="fill:#000000;fill-opacity:1;stroke:#000000;stroke-width:0.86400002;stroke-miterlimit:4;stroke-dasharray:none;font-family:WC Wunderbach Rounded;-inkscape-font-specification:WC Wunderbach Rounded"
         id="path3051"
         inkscape:connector-curvature="0" /><path
         d="m 387.26139,-169.04418 c 0.0342,-0.10248 0.0683,-0.20497 0.0683,-0.30745 0,-0.27329 -0.20497,-0.51242 -0.58074,-0.51242 l -3.72357,0 c -0.47826,0 -0.99068,0.37577 -1.16148,0.81987 l -3.00619,7.31049 c -0.0342,0.10249 -0.0342,0.23913 -0.0342,0.30745 0,0.27329 0.20497,0.51242 0.58074,0.51242 l 3.72357,0 c 0.47826,0 0.99068,-0.34161 1.16148,-0.81987 l 2.97202,-7.31049 m -2.73289,12.91293 c -0.37577,-1.02484 -0.40994,-2.25464 -1.60558,-2.25464 l -4.95337,0 c -0.47826,0 -0.85403,0.34161 -0.85403,0.81987 l 0,3.04035 c 0,0.44409 0.37577,0.81986 0.85403,0.81986 l 1.26396,0 c 0.47826,0 0.99068,0.37578 1.12732,0.81987 l 3.48445,10.28252 c 0.13664,0.47826 0.64906,0.81987 1.12731,0.81987 l 3.58693,0 c 0.37577,0 0.6149,-0.23913 0.6149,-0.58074 0,-0.0342 0,-0.13665 -0.0342,-0.23913 l -4.61176,-13.52783 m -17.38805,-9.66762 c 0,0.4441 0.4441,0.81987 0.92236,0.81987 l 0.58074,0 c 0.47825,0 0.92235,0.37577 0.92235,0.85403 l 0,21.48739 c 0,0.40993 0.37577,0.78571 0.85403,0.78571 l 3.27947,0 c 0.47826,0 0.85403,-0.37578 0.85403,-0.78571 l 0,-26.4066 c 0,-0.4441 -0.37577,-0.81987 -0.85403,-0.81987 l -5.70492,0 c -0.47825,0 -0.85403,0.37577 -0.85403,0.81987 l 0,3.24531"
         style="fill:#000000;fill-opacity:1;stroke:#000000;stroke-width:0.86400002;stroke-miterlimit:4;stroke-dasharray:none;font-family:WC Wunderbach Rounded;-inkscape-font-specification:WC Wunderbach Rounded"
         id="path3053"
         inkscape:connector-curvature="0" /><path
         d="m 390.48162,-139.22146 c -0.0342,0.13664 -0.0683,0.23913 -0.0683,0.34161 0,0.27329 0.20497,0.4441 0.54658,0.4441 l 3.79189,0 c 0.47826,0 1.02484,-0.34162 1.22981,-0.78571 l 14.3477,-31.49662 c 0.0683,-0.10248 0.0683,-0.20497 0.0683,-0.30745 0,-0.30745 -0.20497,-0.47826 -0.58074,-0.47826 l -3.82606,0 c -0.47825,0 -0.99067,0.34162 -1.19564,0.78571 l -14.31354,31.49662"
         style="fill:#000000;fill-opacity:1;stroke:#000000;stroke-width:0.86400002;stroke-miterlimit:4;stroke-dasharray:none;font-family:WC Wunderbach Rounded;-inkscape-font-specification:WC Wunderbach Rounded"
         id="path3055"
         inkscape:connector-curvature="0" /><path
         d="m 421.85439,-146.77108 c -0.47826,0 -0.85403,0.37577 -0.85403,0.85403 l 0,3.27947 c 0,0.47826 0.37577,0.85403 0.85403,0.85403 l 7.44714,0 c 0.47825,0 0.85403,-0.37577 0.85403,-0.85403 l 0,-3.27947 c 0,-0.47826 -0.37578,-0.85403 -0.85403,-0.85403 l -7.44714,0 m -9.46265,-22.99049 c -0.17081,0 -0.54658,0.4441 -0.54658,0.8882 l 0,3.34779 c 0,0.40994 0.37577,0.81987 0.85403,0.81987 l -0.0683,0 c 0.47825,0 0.85403,0.40994 0.85403,0.85403 l 0,21.31658 c 0,0.4441 0.37577,0.81987 0.85403,0.81987 l 3.27947,0 c 0.47826,0 0.85403,-0.37577 0.85403,-0.81987 l 0,-26.33827 c 0,-0.4441 -0.37577,-0.8882 -1.16148,-0.8882 l -4.91921,0"
         style="fill:#000000;fill-opacity:1;stroke:#000000;stroke-width:0.86400002;stroke-miterlimit:4;stroke-dasharray:none;font-family:WC Wunderbach Rounded;-inkscape-font-specification:WC Wunderbach Rounded"
         id="path3057"
         inkscape:connector-curvature="0" /><path
         d="m 433.46387,-169.7274 c -0.47826,0 -0.85403,0.40993 -0.85403,0.85403 l 0,3.34779 c 0,0.4441 0.37577,0.81987 0.85403,0.81987 l 1.26396,0 c 0.47826,0 0.85403,0.40994 0.85403,0.85403 l 0,16.26073 c 0,0.44409 -0.37577,0.81987 -0.85403,0.81987 l -1.36644,0 c -0.4441,0 -0.81987,0.40993 -0.81987,0.85403 l 0,3.34779 c 0,0.4441 0.37577,0.81987 0.81987,0.81987 l 6.04653,0 c 0.47825,0 0.85403,-0.37577 0.85403,-0.81987 l 0,-26.30411 c 0,-0.4441 -0.37578,-0.85403 -0.85403,-0.85403 l -5.94405,0 m 10.18004,22.95632 c -0.47826,0 -0.85403,0.40993 -0.85403,0.85403 l 0,3.34779 c 0,0.4441 0.37577,0.81987 0.85403,0.81987 l 7.13968,0 c 0.47826,0 0.85403,-0.37577 0.85403,-0.81987 l 0,-3.34779 c 0,-0.4441 -0.37577,-0.85403 -0.85403,-0.85403 l -7.13968,0 m 7.13968,-17.93463 c 0.47826,0 0.85403,-0.37577 0.85403,-0.81987 l 0,-3.34779 c 0,-0.4441 -0.37577,-0.85403 -0.85403,-0.85403 l -7.13968,0 c -0.47826,0 -0.85403,0.40993 -0.85403,0.85403 l 0,3.34779 c 0,0.4441 0.37577,0.81987 0.85403,0.81987 l 7.13968,0 m -1.2298,11.23903 c 0.47826,0 0.85403,-0.37577 0.85403,-0.81987 l 0,-3.34779 c 0,-0.4441 -0.37577,-0.81987 -0.85403,-0.81987 l -5.90988,0 c -0.47826,0 -0.85403,0.37577 -0.85403,0.81987 l 0,3.34779 c 0,0.4441 0.37577,0.81987 0.85403,0.81987 l 5.90988,0"
         style="fill:#000000;fill-opacity:1;stroke:#000000;stroke-width:0.86400002;stroke-miterlimit:4;stroke-dasharray:none;font-family:WC Wunderbach Rounded;-inkscape-font-specification:WC Wunderbach Rounded"
         id="path3059"
         inkscape:connector-curvature="0" /><path
         d="m 456.94433,-153.73997 3.65525,0 c 1.16148,0 1.02484,-0.47826 1.40061,-1.46893 l 4.71424,-12.91293 c 0.13665,-0.34161 0.20497,-0.71738 0.20497,-0.99067 0,-0.30745 -0.27329,-0.6149 -0.99067,-0.6149 l -3.00619,0 c -0.47826,0 -0.99067,0.37577 -1.16148,0.81986 l -5.36331,14.3477 c -0.0342,0.10249 -0.0342,0.20497 -0.0342,0.27329 0,0.30745 0.20497,0.54658 0.58074,0.54658 m 16.32905,1.57142 -4.61176,-12.33219 c -0.0683,-0.23913 -0.17081,-0.34161 -0.27329,-0.34161 -0.10248,0 -0.20497,0.10248 -0.30745,0.34161 l -2.08383,5.63659 c -0.0683,0.20497 -0.10249,0.51242 -0.10249,0.78571 0,0.30745 0.0342,0.58074 0.10249,0.81987 l 2.4596,6.55895 c 0.17081,0.44409 0.30745,0.81987 0.30745,0.81987 l 0,7.31049 c 0,0.4441 0.37578,0.81987 0.85403,0.81987 l 3.24532,0 c 0.47825,0 0.85403,-0.37577 0.85403,-0.81987 l 0,-7.54962 c 0,-1.09316 0,-0.88819 -0.4441,-2.04967 m -17.35388,0.88819 c -0.47826,0 -0.85403,0.37577 -0.85403,0.85403 l 0,7.85707 c 0,0.4441 0.37577,0.81987 0.85403,0.81987 l 3.31363,0 c 0.47826,0 0.85403,-0.37577 0.85403,-0.81987 l 0,-2.86954 c 0,-0.44409 0.37578,-0.85403 0.85403,-0.85403 l 4.44096,0 c 0.47825,0 0.85403,-0.37577 0.85403,-0.81987 l 0,-3.27947 c 0,-0.47826 -0.37578,-0.85403 -0.85403,-0.85403 l -9.46265,-0.0342"
         style="fill:#000000;fill-opacity:1;stroke:#000000;stroke-width:0.86400002;stroke-miterlimit:4;stroke-dasharray:none;font-family:WC Wunderbach Rounded;-inkscape-font-specification:WC Wunderbach Rounded"
         id="path3061"
         inkscape:connector-curvature="0" /><path
         d="m 497.75096,-142.56926 -2.97202,-7.34465 c -0.17081,-0.40994 -0.71739,-0.78571 -1.19564,-0.78571 l -3.72357,0 c -0.34161,0 -0.58074,0.20497 -0.58074,0.47826 0,0.10248 0.0342,0.20496 0.0683,0.30745 l 2.97202,7.34465 c 0.17081,0.4441 0.68323,0.78571 1.16148,0.78571 l 3.75773,0 c 0.34162,0 0.58074,-0.20497 0.58074,-0.51242 0,-0.10248 -0.0342,-0.1708 -0.0683,-0.27329 m -13.49367,-27.22647 -6.18317,0.0342 c -0.47826,0 -0.85403,0.37578 -0.85403,0.85403 l 0,3.27948 c 0,0.47825 0.37577,0.85403 0.85403,0.85403 l 1.16148,0 c 0.47825,0 0.85403,0.37577 0.85403,0.85403 l 0,21.28242 c 0,0.47826 0.37577,0.85403 0.85403,0.85403 l 3.31363,0 c 0.47826,0 0.85403,-0.37577 0.85403,-0.85403 l 0,-26.30412 c 0,-0.47825 -0.37577,-0.85403 -0.85403,-0.85403 m 8.33533,16.53402 0.81987,0 -0.0342,-0.0342 c 2.25464,0 3.9627,-2.59625 3.9627,-4.61176 l 0,-6.90056 c 0,-2.7329 -2.18632,-4.98754 -4.98754,-4.98754 l -1.36644,0 -2.49377,0 c -0.47826,0 -0.85403,0.37578 -0.85403,0.85403 l 0,3.31364 c 0,0.47825 0.37577,0.85403 0.85403,0.85403 l 3.00618,0 c 0.4441,0 0.81987,0.37577 0.81987,0.85403 l 0,4.7484 c 0,0.4441 -0.37577,0.81987 -0.81987,0.81987 l -3.00618,0 c -0.47826,0 -0.85403,0.37578 -0.85403,0.85403 l 0,3.38196 c 0,0.47826 0.37577,0.85403 0.85403,0.85403 l 2.08383,0 2.01551,0"
         style="fill:#000000;fill-opacity:1;stroke:#000000;stroke-width:0.86400002;stroke-miterlimit:4;stroke-dasharray:none;font-family:WC Wunderbach Rounded;-inkscape-font-specification:WC Wunderbach Rounded"
         id="path3063"
         inkscape:connector-curvature="0" /><path
         d="m 522.90799,-141.74939 c 0.47826,0 0.85403,-0.37577 0.85403,-0.81987 l 0,-26.30411 c 0,-0.4441 -0.37577,-0.85403 -0.85403,-0.85403 l -3.27947,0 c -0.47826,0 -0.85403,0.40993 -0.85403,0.85403 l 0,26.30411 c 0,0.4441 0.37577,0.81987 0.85403,0.81987 l 3.27947,0 m -13.32286,-16.49985 c 0,-0.23913 0.0683,-0.37578 0.13664,-0.37578 0.0683,0 0.13665,0.10249 0.23913,0.30745 l 5.94405,11.64897 c 0.10248,0.20497 0.1708,0.30745 0.23913,0.30745 0.10248,0 0.13664,-0.13665 0.13664,-0.37577 l 0,-9.42849 c 0,-0.4441 -0.13664,-1.16148 -0.37577,-1.60558 l -5.67076,-11.20487 c -0.20497,-0.44409 -0.75155,-0.78571 -1.2298,-0.78571 l -6.42231,0 c -0.44409,0 -0.81986,0.40994 -0.81986,0.85403 l 0,3.17699 c 0,0.4441 0.37577,0.85403 0.81986,0.85403 l 1.12732,0 c 0.47826,0 0.85403,0.37578 0.85403,0.81987 l 0,21.48739 c 0,0.4441 0.37578,0.81987 0.85403,0.81987 l 3.31364,0 c 0.47825,0 0.85403,-0.37577 0.85403,-0.81987 l 0,-15.67998"
         style="fill:#000000;fill-opacity:1;stroke:#000000;stroke-width:0.86400002;stroke-miterlimit:4;stroke-dasharray:none;font-family:WC Wunderbach Rounded;-inkscape-font-specification:WC Wunderbach Rounded"
         id="path3065"
         inkscape:connector-curvature="0" /></g><path
       id="path3026"
       style="fill:none;stroke:#000000;stroke-width:0.80000001;stroke-linecap:butt;stroke-linejoin:miter;stroke-miterlimit:4;stroke-opacity:1;stroke-dasharray:none;display:inline"
       d="m 296.47785,364.45098 0,2.785 m -39.9116,-2.785 0,2.785 m 23.6655,2e-4 0,-2.785 m -39.9165,2.79471 0,-2.77301 m 79.04804,-0.0219 0,2.785 m 39.9116,-2.785 0,2.785 m -23.6655,2e-4 0,-2.785 m 39.9165,2.79471 0,-2.77301 m -44.11769,298.71496 -0.004,-8.346 m -6.5194,3e-4 0,-9.086 m -6.5176,1e-4 0,-7.09 m -6.5195,10e-5 0,-5.088 m 168.5024,-255.807 0,5.879 -1.245,1.75 0,54.901 2.64,3.375 3.049,0 3.617,0 c 0.968,0 1.752,0.782 1.752,1.746 l 0,19.537 0,1.254 0,81.442 m 15.1333,-65.8693 0,-97.085 0,-19.537 c 0,-0.965 -0.784,-1.746 -1.753,-1.746 l -9.312,0 c -0.967,0 -1.752,-0.783 -1.752,-1.748 l 0,-17.746 c 0,-0.965 -0.786,-1.746 -1.753,-1.746 l -2.231,0 -5.816,0 -3.364,-3.225 0,-69.422 1.932,-3.341 0,-8.377 m -70.3992,73.3372 10.598,2.652 c 1.028,0.174 1.618,0.914 1.618,1.881 m 6.7049,156.845 c 0,-3.359 2.725,-6.084 6.084,-6.084 3.359,0 6.084,2.725 6.084,6.084 0,3.359 -2.725,6.086 -6.084,6.086 -3.359,0 -6.084,-2.727 -6.084,-6.086 z m -117.0718,188.7602 0,8.838 c 0,0 0.266,7.068 -4.949,7.068 m 16.9822,-5.7839 0,-10.122 -5.256,0 0,-2.603 -2.699,-1.201 0,-24.424 m 57.06,-49.3981 0,-83.078 m -14.1162,56.2016 0,-68.194 m -17.3345,56.1969 0,-65.552 m -20.1406,56.1965 0,-62.915 m 2.6406,153.2378 c 8.4,-10.439 24.641,-24.175 24.641,-59.536 m 11.5753,9.0868 c -1.015,23.042 -10.888,45.811 -29.658,59.556 m -13.0759,-16.1967 c 12.09,-15.034 17.627,-31.064 18.008,-59.536 m -24.5471,54.5067 c 1.711,-9.678 6.93,-25.249 6.93,-59.595 m 56.7678,-206.7961 0,0 c -0.674,0 -1.28,0.596 -1.216,1.494 l 0,41.415 c 0,1.008 0.542,1.494 1.216,1.494 m 0,2.9398 0,-2.939 m -8.1152,-44.5229 0,0 c 0.669,0 1.279,0.586 1.21,1.496 l 0,41.415 c 0,0.996 -0.541,1.496 -1.21,1.496 m -0.0157,-44.407 0,0 c -0.674,0 -1.278,0.586 -1.215,1.496 l 0,41.415 c 0,0.996 0.541,1.496 1.215,1.496 m -31.7856,-44.2976 0,0 c -0.67,0 -1.281,0.584 -1.217,1.482 l 0,41.417 c 0,1.008 0.547,1.495 1.217,1.495 m 23.6655,-44.394 0,0 c 0.675,0 1.279,0.584 1.217,1.482 l 0,41.417 c 0,1.008 -0.542,1.495 -1.217,1.495 m 0,-5e-4 0,2.783 m 0,2e-4 -23.666,0 m 5e-4,0 0,-2.783 m -8.1172,-44.5031 0,0 c 0.674,0 1.281,0.586 1.217,1.486 l 0,41.425 c 0,0.996 -0.543,1.486 -1.217,1.486 m -0.01,-44.397 0,0 c -0.672,0 -1.279,0.586 -1.215,1.486 l 0,41.425 c 0,0.996 0.543,1.486 1.215,1.486 m -8.1191,-44.2876 0,0 c 0.674,0 1.279,0.584 1.215,1.482 l 0,41.417 c 0,1.008 -0.541,1.495 -1.215,1.495 m 0,-5e-4 0,2.783 -11.615,0 m 115.3157,-78.7293 0,16.961 m -12.2305,-89.0498 0,0 c -0.825,0 -1.573,0.723 -1.489,1.826 l 0,50.761 c 0,1.219 0.664,1.824 1.489,1.824 m -10.2197,-54.4325 0,0 c 0.819,0 1.566,0.725 1.488,1.826 l 0,50.761 c 0,1.221 -0.669,1.828 -1.488,1.828 m -0.0195,-54.415 0,0 c -0.82,0 -1.568,0.725 -1.489,1.826 l 0,50.761 c 0,1.221 0.669,1.828 1.489,1.828 m -26.9688,-54.4345 0,0 c -0.824,0 -1.566,0.713 -1.488,1.818 l 0,50.761 c 0,1.229 0.664,1.826 1.488,1.826 m 16.7539,-54.405 0,0 c 0.82,0 1.566,0.713 1.483,1.818 l 0,50.761 c 0,1.229 -0.663,1.826 -1.483,1.826 m -16.7539,-54.405 0,-3.416 16.754,0 0,3.416 m -10e-5,54.4052 0,3.406 -16.754,0 0,-3.406 m -10.2196,-54.3857 0,0 c 0.825,0 1.573,0.725 1.489,1.826 l 0,50.761 c 0,1.221 -0.664,1.828 -1.489,1.828 m -0.0147,-54.415 0,0 c -0.819,0 -1.566,0.725 -1.488,1.826 l 0,50.761 c 0,1.221 0.669,1.828 1.488,1.828 m -26.9672,-54.4345 0,0 c -0.824,0 -1.566,0.713 -1.488,1.818 l 0,50.761 c 0,1.229 0.664,1.826 1.488,1.826 m 16.7475,-54.405 0,0 c 0.821,0 1.568,0.713 1.489,1.818 l 0,50.761 c 0,1.229 -0.668,1.826 -1.489,1.826 m -16.7475,-54.405 0,-3.416 16.748,0 0,3.416 m -5e-4,54.4052 0,3.406 -16.748,0 0,-3.406 m -10.2203,-54.3857 0,0 c 0.826,0 1.568,0.725 1.49,1.826 l 0,50.761 c 0,1.221 -0.664,1.828 -1.49,1.828 m -0.0136,-54.415 0,0 c -0.826,0 -1.572,0.725 -1.49,1.826 l 0,50.761 c 0,1.221 0.664,1.828 1.49,1.828 m -10.2207,-54.4345 0,0 c 0.822,0 1.568,0.713 1.49,1.818 l 0,50.761 c 0,1.229 -0.668,1.826 -1.49,1.826 m -8.2207,-57.8211 8.221,0 0,3.416 m -3e-4,54.4053 0,3.406 -8.221,0 m 138.5789,107.1282 -10.503,5.029 -10.665,-5.029 21.168,0 z m -23.6475,69.2402 c 2.08,5.234 7.192,8.936 13.169,8.936 5.977,0 11.089,-3.702 13.169,-8.936 m -58.4386,-119.9619 0,6.133 m -15.0527,30.6844 16.294,0 m 19.7558,-36.8174 0,6.24 m 17.3246,37.0835 13.651,0 0,-26.397 -13.651,0 0,26.397 z m -38.3217,-37.1907 1.241,1.738 0,54.749 -2.505,3.27 m 70.1605,-65.8898 0,5.939 1.246,1.747 0,54.913 -2.461,3.183 0.005,3.498 m -46.8173,-63.2038 -1.239,1.736 0,54.74 2.456,3.337 0.029,3.391 m -5.5663,118.421 4.999,-8.467 -0.009,-39.682 m 16.6506,48.149 -5,-8.462 0.01,-39.687 m 21.6736,71.9918 c -5.395,5.494 -3.212,11.895 -8.135,13.638 -0.756,1.947 -3.954,2.07 -4.716,0.122 -5.883,-2.915 -3.78,-10.136 -7.877,-13.916 m 27.687,-23.6966 c -3.32,5.059 -5.605,14.287 -6.959,23.853 m -26.957,-23.8676 c 3.32,5.058 4.873,14.15 6.229,23.711 m 38.4389,-23.6036 0.014,52.901 m -56.0345,-52.9938 0,52.994 m 34.3799,-52.994 5,-8.457 -0.01,-39.692 m 16.6545,48.149 -5,-8.447 0.01,-39.702 m -61.4846,-12.2377 0,73.688 m 77.2031,-73.7075 0,73.707 m -2.8271,-104.7119 0,28.232 2.827,2.773 m -77.0995,-1e-4 3.257,-2.732 0,-28.273 m 15.8885,31.005 0,-38.476 m 39.6377,38.476 0,-38.476 m -23.4218,118.9457 c 0,4.272 6.547,4.272 6.318,0 l 0,-10.035 -6.318,0 0,10.035 z m 24.7548,-243.3486 3.365,-3.225 0,-69.421 -1.933,-3.341 0,-8.377 m -27.5599,65.4675 c 0,5.564 11.793,5.564 11.373,0 l 0,-18.262 -11.373,0 0,18.262 z m 26.1035,18.8164 0,10.547 m -81.9824,77.6864 -67.286,26.018 m 103.2294,-204.9633 0,12.219 m 0,54.4011 0,13.145 m -126.41504,332.0371 0.004,-8.346 m 6.5194,3e-4 0,-9.086 m 6.5176,1e-4 0,-7.09 m 6.5195,10e-5 0,-5.088 m -168.50241,-255.807 0,5.879 1.245,1.75 0,54.901 -2.64,3.375 -3.049,0 -3.617,0 c -0.968,0 -1.752,0.782 -1.752,1.746 l 0,19.537 0,1.254 0,81.442 m -15.1333,-65.8693 0,-97.085 0,-19.537 c 0,-0.965 0.784,-1.746 1.753,-1.746 l 9.312,0 c 0.967,0 1.752,-0.783 1.752,-1.748 l 0,-17.746 c 0,-0.965 0.786,-1.746 1.753,-1.746 l 2.231,0 5.816,0 3.364,-3.225 0,-69.422 -1.932,-3.341 0,-8.377 m 70.39921,73.3372 -10.598,2.652 c -1.028,0.174 -1.618,0.914 -1.618,1.881 m -6.7049,156.845 c 0,-3.359 -2.725,-6.084 -6.084,-6.084 -3.359,0 -6.084,2.725 -6.084,6.084 0,3.359 2.725,6.086 6.084,6.086 3.359,0 6.084,-2.727 6.084,-6.086 z m 117.0718,188.7602 0,8.838 c 0,0 -0.266,7.068 4.949,7.068 m -16.9822,-5.7839 0,-10.122 5.256,0 0,-2.603 2.699,-1.201 0,-24.424 m -57.06,-49.3981 0,-83.078 m 14.1162,56.2016 0,-68.194 m 17.3345,56.1969 0,-65.552 m 20.1406,56.1965 0,-62.915 m -2.6406,153.2378 c -8.4,-10.439 -24.641,-24.175 -24.641,-59.536 m -11.5753,9.0868 c 1.015,23.042 10.888,45.811 29.658,59.556 m 13.0759,-16.1967 c -12.09,-15.034 -17.627,-31.064 -18.008,-59.536 m 24.5471,54.5067 c -1.711,-9.678 -6.93,-25.249 -6.93,-59.595 m -56.7678,-206.7961 0,0 c 0.674,0 1.28,0.596 1.216,1.494 l 0,41.415 c 0,1.008 -0.542,1.494 -1.216,1.494 m 0,2.9398 0,-2.939 m 8.1152,-44.5229 0,0 c -0.669,0 -1.279,0.586 -1.21,1.496 l 0,41.415 c 0,0.996 0.541,1.496 1.21,1.496 m 0.0157,-44.407 0,0 c 0.674,0 1.278,0.586 1.215,1.496 l 0,41.415 c 0,0.996 -0.541,1.496 -1.215,1.496 m 31.7856,-44.2976 0,0 c 0.67,0 1.281,0.584 1.217,1.482 l 0,41.417 c 0,1.008 -0.547,1.495 -1.217,1.495 m -23.6655,-44.394 0,0 c -0.675,0 -1.279,0.584 -1.217,1.482 l 0,41.417 c 0,1.008 0.542,1.495 1.217,1.495 m 0,-5e-4 0,2.783 m 0,2e-4 23.666,0 m -5e-4,0 0,-2.783 m 8.1172,-44.5031 0,0 c -0.674,0 -1.281,0.586 -1.217,1.486 l 0,41.425 c 0,0.996 0.543,1.486 1.217,1.486 m 0.01,-44.397 0,0 c 0.672,0 1.279,0.586 1.215,1.486 l 0,41.425 c 0,0.996 -0.543,1.486 -1.215,1.486 m 8.1191,-44.2876 0,0 c -0.674,0 -1.279,0.584 -1.215,1.482 l 0,41.417 c 0,1.008 0.541,1.495 1.215,1.495 m 0,-5e-4 0,2.783 11.615,0 m -115.3157,-78.7293 0,16.961 m 12.2305,-89.0498 0,0 c 0.825,0 1.573,0.723 1.489,1.826 l 0,50.761 c 0,1.219 -0.664,1.824 -1.489,1.824 m 10.2197,-54.4325 0,0 c -0.819,0 -1.566,0.725 -1.488,1.826 l 0,50.761 c 0,1.221 0.669,1.828 1.488,1.828 m 0.0195,-54.415 0,0 c 0.82,0 1.568,0.725 1.489,1.826 l 0,50.761 c 0,1.221 -0.669,1.828 -1.489,1.828 m 26.9688,-54.4345 0,0 c 0.824,0 1.566,0.713 1.488,1.818 l 0,50.761 c 0,1.229 -0.664,1.826 -1.488,1.826 m -16.7539,-54.405 0,0 c -0.82,0 -1.566,0.713 -1.483,1.818 l 0,50.761 c 0,1.229 0.663,1.826 1.483,1.826 m 16.7539,-54.405 0,-3.416 -16.754,0 0,3.416 m 1e-4,54.4052 0,3.406 16.754,0 0,-3.406 m 10.2196,-54.3857 0,0 c -0.825,0 -1.573,0.725 -1.489,1.826 l 0,50.761 c 0,1.221 0.664,1.828 1.489,1.828 m 0.0147,-54.415 0,0 c 0.819,0 1.566,0.725 1.488,1.826 l 0,50.761 c 0,1.221 -0.669,1.828 -1.488,1.828 m 26.9672,-54.4345 0,0 c 0.824,0 1.566,0.713 1.488,1.818 l 0,50.761 c 0,1.229 -0.664,1.826 -1.488,1.826 m -16.7475,-54.405 0,0 c -0.821,0 -1.568,0.713 -1.489,1.818 l 0,50.761 c 0,1.229 0.668,1.826 1.489,1.826 m 16.7475,-54.405 0,-3.416 -16.748,0 0,3.416 m 5e-4,54.4052 0,3.406 16.748,0 0,-3.406 m 10.2203,-54.3857 0,0 c -0.826,0 -1.568,0.725 -1.49,1.826 l 0,50.761 c 0,1.221 0.664,1.828 1.49,1.828 m 0.0136,-54.415 0,0 c 0.826,0 1.572,0.725 1.49,1.826 l 0,50.761 c 0,1.221 -0.664,1.828 -1.49,1.828 m 10.2207,-54.4345 0,0 c -0.822,0 -1.568,0.713 -1.49,1.818 l 0,50.761 c 0,1.229 0.668,1.826 1.49,1.826 m 8.2207,-57.8211 -8.221,0 0,3.416 m 3e-4,54.4053 0,3.406 8.221,0 m -138.5789,107.1282 10.503,5.029 10.665,-5.029 -21.168,0 z m 23.6475,69.2402 c -2.08,5.234 -7.192,8.936 -13.169,8.936 -5.977,0 -11.089,-3.702 -13.169,-8.936 m 58.4386,-119.9619 0,6.133 m 15.0527,30.6844 -16.294,0 m -19.7558,-36.8174 0,6.24 m -17.3246,37.0835 -13.651,0 0,-26.397 13.651,0 0,26.397 z m 38.3217,-37.1907 -1.241,1.738 0,54.749 2.505,3.27 m -70.1605,-65.8898 0,5.939 -1.246,1.747 0,54.913 2.461,3.183 -0.005,3.498 m 46.8173,-63.2038 1.239,1.736 0,54.74 -2.456,3.337 -0.029,3.391 m 5.5663,118.421 -4.999,-8.467 0.009,-39.682 m -16.6506,48.149 5,-8.462 -0.01,-39.687 m -21.6736,71.9918 c 5.395,5.494 3.212,11.895 8.135,13.638 0.756,1.947 3.954,2.07 4.716,0.122 5.883,-2.915 3.78,-10.136 7.877,-13.916 m -27.687,-23.6966 c 3.32,5.059 5.605,14.287 6.959,23.853 m 26.957,-23.8676 c -3.32,5.058 -4.873,14.15 -6.229,23.711 m -38.4389,-23.6036 -0.014,52.901 m 56.0345,-52.9938 0,52.994 m -34.3799,-52.994 -5,-8.457 0.01,-39.692 m -16.6545,48.149 5,-8.447 -0.01,-39.702 m 61.4846,-12.2377 0,73.688 m -77.20311,-73.7075 0,73.707 m 2.82711,-104.7119 0,28.232 -2.82701,2.773 m 77.09951,-1e-4 -3.257,-2.732 0,-28.273 m -15.8885,31.005 0,-38.476 m -39.6377,38.476 0,-38.476 m 23.4218,118.9457 c 0,4.272 -6.547,4.272 -6.318,0 l 0,-10.035 6.318,0 0,10.035 z m -24.7548,-243.3486 -3.365,-3.225 0,-69.421 1.933,-3.341 0,-8.377 m 27.5599,65.4675 c 0,5.564 -11.793,5.564 -11.373,0 l 0,-18.262 11.373,0 0,18.262 z m -26.1035,18.8164 0,10.547 m 81.9824,77.6864 67.286,26.018 m -103.2294,-204.9633 0,12.219 m 0,54.4011 0,13.145"
       inkscape:connector-curvature="0" /><path
       id="path3024-1"
       style="fill:none;stroke:#ed1c24;stroke-width:0.8px;stroke-linecap:butt;stroke-linejoin:miter;stroke-opacity:1;display:inline;color:#000000;stroke-miterlimit:4;stroke-dasharray:none;stroke-dashoffset:0;marker:none;visibility:visible;overflow:visible;enable-background:accumulate"
       d="m 313.24999,691.39998 10.4,0 m -31.75,0 10.4,0 m -46.06554,-326.949 -15.72445,0 m 55.19221,0 -14.69512,0 m -87.35824,-28.76754 c 0,0 58.9683,0.002 114.29606,0.005 m -6.17585,345.60142 -4.15281,0 m 1.9221,-28.2275 8.40251,0 m -22.93721,10.1269 13.289,0 m 4.7282,-24.5215 -4.874,0 m -1.4456,7.0899 -5.174,0 m -1.3435,9.0859 -5.074,0 m 22.82548,-21.2586 -3.04168,0.005 m -62.07158,-29.9273 11.94159,-8e-4 m 12.44824,-17.4411 11.49427,0 m -23.07087,9.0865 10.32676,0 m 14.32141,-16.1763 15.94493,0 m 11.70313,-30.3721 -13.71138,0 m -20.143,6.6748 18.997,0 m -36.4295,9.3555 16.189,0 m -29.93275,11.998 12.79807,0 m 42.22542,-2.7451 10.00597,0 m -66.77086,-26.3916 -21.02227,0 m 87.80584,-55.1318 -13.78211,0 m 13.93219,0 -0.15008,0 m -33.99582,6.7187 19.01538,0 m -36.06504,9.3545 15.85383,0 m -30.32458,11.9932 12.91967,0 m -49.65294,-252.2275 -48.70432,0 m 0.0169,-10.544 -21.70867,0 m 57.0531,94.8311 -33.04969,0 m -1.11954,-10.4922 -23.848,0.025 m 64.90203,124.4037 -38.20063,0 m 63.6593,-36.2207 15.67,0 m -36.89978,-49.2178 -46.43515,0 m 45.64563,65.9092 -44.803,0 m 67.9838,-3.3906 -21.606,0 m -92.933,38.125 13.588,-0.008 m 90.1118,-7.7264 -14.144,-0.018 m -7.9363,43.2895 10.215,0 m -45.08719,-0.01 10.74942,0 m 30.61309,-19.5801 -5.99044,0 m 3.03802,67.71489 -8.928,0.024 m 30.8272,-60.4156 -17.801,0 m -34.15846,-7.3233 -5.67696,0 m 48.63502,81.03029 9.306,0 m -48.579,-52.6514 21.195,0 m -64.8444,21.543 14.824,0 m 61.7697,9.35061 -10.397,0.005 m -39.00712,61.4457 54.19983,0 m -65.31991,-39.69291 9.584,0 m 21.7447,-13.3008 -9.944,0 m 5.044,-8.457 -10.701,0.01 m 1.6434,-51.9592 -16.971,0 m 16.7899,-31.0049 -14.54531,0 m -8.84979,-96.2803 19.33,0 m 49.43812,0 19.44259,0 m -89.64641,65.8897 21.939,0 m 151.12018,-192.27542 -102.38047,2e-5 m -96.68725,146.2685 -52.026554,0 m 302.763834,-33.20316 15.72445,0 m -55.19221,0 14.69512,0 m 87.35824,-28.76754 c 0,0 -58.9683,0.002 -114.29606,0.005 m 5.96371,345.60142 4.15281,0 m -1.70996,-28.2275 -8.40251,0 m 22.93721,10.1269 -13.289,0 m -4.7282,-24.5215 4.874,0 m 1.4456,7.0899 5.174,0 m 1.3435,9.0859 5.074,0 m -22.82548,-21.2586 3.04168,0.005 m 62.07158,-29.9273 -11.94159,-8e-4 m -12.44824,-17.4411 -11.49427,0 m 23.07087,9.0865 -10.32676,0 m -14.32141,-16.1763 -15.94493,0 m -11.70313,-30.3721 13.71138,0 m 20.143,6.6748 -18.997,0 m 36.4295,9.3555 -16.189,0 m 29.93275,11.998 -12.79807,0 m -42.22542,-2.7451 -10.00597,0 m 66.77086,-26.3916 21.02227,0 m -87.80584,-55.1318 13.78211,0 m -13.93219,0 0.15008,0 m 33.99582,6.7187 -19.01538,0 m 36.06504,9.3545 -15.85383,0 m 30.32458,11.9932 -12.91967,0 m 49.65294,-252.2275 48.70432,0 m -0.0169,-10.544 21.70867,0 m -57.0531,94.8311 33.04969,0 m 1.11954,-10.4922 23.848,0.025 m -64.90203,124.4037 38.20063,0 m -63.6593,-36.2207 -15.67,0 m 36.89978,-49.2178 46.43515,0 m -45.64563,65.9092 44.803,0 m -67.9838,-3.3906 21.606,0 m 92.933,38.125 -13.588,-0.008 m -90.1118,-7.7264 14.144,-0.018 m 7.9363,43.2895 -10.215,0 m 45.08719,-0.01 -10.74942,0 m -30.61309,-19.5801 5.99044,0 m -3.03802,67.71489 8.928,0.024 m -30.8272,-60.4156 17.801,0 m 34.15846,-7.3233 5.67696,0 m -48.63502,81.03029 -9.306,0 m 48.579,-52.6514 -21.195,0 m 64.8444,21.543 -14.824,0 m -61.7697,9.35061 10.397,0.005 m 39.00712,61.4457 -54.19983,0 m 65.31991,-39.69291 -9.584,0 m -21.7447,-13.3008 9.944,0 m -5.044,-8.457 10.701,0.01 m -1.6434,-51.9592 16.971,0 m -16.7899,-31.0049 14.54531,0 m 8.84979,-96.2803 -19.33,0 m -49.43812,0 -19.44259,0 m 89.64641,65.8897 -21.939,0 m -151.12018,-192.27542 102.38047,2e-5 m 96.68725,146.2685 52.02656,0" /></g><g
     inkscape:groupmode="layer"
     id="layer2"
     inkscape:label="above"
     style="display:inline" /><g
     inkscape:groupmode="layer"
     id="layer1"
     inkscape:label="cut in half"
     style="display:none"
     transform="translate(0,-62.363)"><rect
       style="color:#000000;fill-opacity:1;fill-rule:nonzero;stroke:#0000ff;stroke-width:0.48000002;stroke-linecap:butt;stroke-linejoin:miter;stroke-miterlimit:4;stroke-opacity:1;stroke-dasharray:none;stroke-dashoffset:0;marker:none;visibility:visible;display:inline;overflow:visible;enable-background:accumulate"
       id="rect10370"
       width="664"
       height="984"
       x="297.47791"
       y="-899.19995"
       transform="matrix(1.25,0,0,1.25,0,1052.3625)" /></g><text
     xml:space="preserve"
     style="font-size:40px;font-style:normal;font-variant:normal;font-weight:normal;font-stretch:normal;line-height:125%;letter-spacing:0px;word-spacing:0px;fill:#000000;fill-opacity:1;stroke:none;font-family:DejaVu Sans;-inkscape-font-specification:DejaVu Sans"
     x="-275.42853"
     y="-273.47656"
     id="text14453"
     sodipodi:linespacing="125%"><tspan
       sodipodi:role="line"
       id="tspan14455"
       x="-275.42853"
       y="-273.47656">source:  http://www.popupology.co.uk/galleries/2/items/2</tspan><tspan
       sodipodi:role="line"
       x="-275.42853"
       y="-223.47656"
       id="tspan14457">license:  standard copyright</tspan><tspan
       sodipodi:role="line"
       x="-275.42853"
       y="-173.47656"
       id="tspan3009" /><tspan
       sodipodi:role="line"
       x="-275.42853"
       y="-123.47656"
       id="tspan3013">font:  WC Wunderbach Round</tspan><tspan
       sodipodi:role="line"
       x="-275.42853"
       y="-73.476562"
       id="tspan3020">font license:  Creative Commons Attribution-No Derivative Works</tspan></text>
<text
     xml:space="preserve"
     style="font-size:40px;font-style:normal;font-variant:normal;font-weight:normal;font-stretch:normal;line-height:125%;letter-spacing:0px;word-spacing:0px;fill:#000000;fill-opacity:1;stroke:none;font-family:DejaVu Sans;-inkscape-font-specification:DejaVu Sans"
     x="332.68332"
     y="58.859375"
     id="text14459"
     sodipodi:linespacing="125%"><tspan
       sodipodi:role="line"
       id="tspan14461"
       x="332.68332"
       y="58.859375" /></text>
</svg>