<?xml version="1.0" encoding="UTF-8" standalone="no"?>
<!-- Created with Inkscape (http://www.inkscape.org/) -->

<svg
   xmlns:dc="http://purl.org/dc/elements/1.1/"
   xmlns:cc="http://creativecommons.org/ns#"
   xmlns:rdf="http://www.w3.org/1999/02/22-rdf-syntax-ns#"
   xmlns:svg="http://www.w3.org/2000/svg"
   xmlns="http://www.w3.org/2000/svg"
   xmlns:sodipodi="http://sodipodi.sourceforge.net/DTD/sodipodi-0.dtd"
   xmlns:inkscape="http://www.inkscape.org/namespaces/inkscape"
   id="svg2"
   version="1.1"
   inkscape:version="0.48.4 r9939"
   width="765"
   height="990"
   xml:space="preserve"
   sodipodi:docname="pentagonal_prism_23.eps"><metadata
     id="metadata8"><rdf:RDF><cc:Work
         rdf:about=""><dc:format>image/svg+xml</dc:format><dc:type
           rdf:resource="http://purl.org/dc/dcmitype/StillImage" /><dc:title></dc:title></cc:Work></rdf:RDF></metadata><defs
     id="defs6" /><sodipodi:namedview
     pagecolor="#ffffff"
     bordercolor="#666666"
     borderopacity="1"
     objecttolerance="10"
     gridtolerance="10"
     guidetolerance="10"
     inkscape:pageopacity="0"
     inkscape:pageshadow="2"
     inkscape:window-width="1600"
     inkscape:window-height="798"
     id="namedview4"
     showgrid="false"
     inkscape:zoom="0.47676768"
     inkscape:cx="766.24349"
     inkscape:cy="406.48956"
     inkscape:window-x="0"
     inkscape:window-y="31"
     inkscape:window-maximized="1"
     inkscape:current-layer="g10" /><g
     id="g10"
     inkscape:groupmode="layer"
     inkscape:label="ink_ext_XXXXXX"
     transform="matrix(1.25,0,0,-1.25,0,990)"><path
       id="path44"
       style="fill:#d9d9ff;fill-opacity:1;fill-rule:nonzero;stroke:none"
       d="m 438.54991,20.135593 57.198,123.456997 -180.655,-66.258997 m 57.199,123.456997 -123.45699,57.198 66.25799,-180.654997 m 0,0 180.655,66.258997 -123.456,57.198 m -57.199,-123.456997 -66.25799,180.654997 -57.198,-123.457 m 73.44699,258.546 107.208,-192.287 26.29101,218.578 m -133.49901,-26.291 -16.24899,-135.089 123.45699,-57.198 m 26.29101,218.578 -26.291,-218.578 92.54899,99.738 m -66.25799,118.84 -159.79,107.208 26.29099,-133.499 m 133.49901,26.291 -26.29101,133.499 -133.49899,-26.291 m 133.49899,26.291 26.291,-133.499 107.207,159.79 m 0,0 -107.20699,-159.79 133.49799,26.291 m -412.12859,14.659 52.5836,185.099 -118.841005,-66.258 m 66.257405,-118.841 118.8406,66.258 -66.257,118.841 m 0,0 66.257,-118.841 26.292,218.579 m -26.292,-218.579 133.49899,26.291 -107.20699,192.288 m 0,0 107.20699,-192.288 16.249,135.089" /><path
       id="path74"
       style="fill:none;stroke:#000000;stroke-width:1;stroke-linecap:butt;stroke-linejoin:miter;stroke-miterlimit:10;stroke-opacity:1;stroke-dasharray:5.66929, 2.83465, 1.41732, 2.83465;stroke-dashoffset:0"
       d="m 438.54991,20.135593 57.19801,123.456997 m -123.45601,57.198 -57.199,-123.456997 m 180.655,66.258997 -123.456,57.198 m -180.65499,-66.259 123.45599,-57.197997 m -66.25799,180.654997 123.45699,-57.198 m -107.208,192.287 -16.24899,-135.089 m 216.00599,42.54 -66.25799,118.84 m -133.49901,-26.291 133.49901,26.291 m -26.29101,133.499 26.29101,-133.499 m -226.047,226.049 -118.841005,-66.258 m 66.257405,-118.841 118.8406,66.258 m -66.257,118.841 66.257,-118.841 m 0,0 133.499,26.291 m 16.24899,135.089 -123.45599,57.199 m 107.20699,-192.288 16.249,135.089" /><path
       id="path80"
       style="fill:none;stroke:#000000;stroke-width:1;stroke-linecap:butt;stroke-linejoin:miter;stroke-miterlimit:10;stroke-opacity:1;stroke-dasharray:none"
       d="m 495.74791,143.59259 0,0 z m -123.456,57.198 0,0 m -57.199,-123.456997 123.457,-57.198 0,0 75.27301,27.6078 9.533,20.5758 -27.608,75.273397 0,0 -27.608,75.272 -1.214,0.563 -94.634,-18.637 92.54899,99.738 0,0 21.90901,77.125 -11.04301,19.806 -77.12399,21.909 133.498,26.291 -26.291,133.499 -133.498,-26.291 63.058,49.517 2.708,22.514 -49.517,63.058 0,0 -27.607,75.273 -20.57601,9.533 -75.27299,-27.607 0,0 -92.549,-99.738 -77.124605,21.909 -19.8066,-11.043 -21.9098,-77.124 0,0 66.257405,-118.841 0,0 77.1246,-21.909 19.80699,11.043 21.909,77.124 0,0 26.291,-133.499 0,0 -63.057,-49.517 -2.709,-22.514 49.517,-63.058 -57.198,-123.457 27.608,-75.272197 1.215,-0.5633 94.633,18.6375 z" /></g></svg>