<?xml version="1.0" encoding="UTF-8" standalone="no"?>
<!-- Created with Inkscape (http://www.inkscape.org/) -->

<svg
   xmlns:dc="http://purl.org/dc/elements/1.1/"
   xmlns:cc="http://creativecommons.org/ns#"
   xmlns:rdf="http://www.w3.org/1999/02/22-rdf-syntax-ns#"
   xmlns:svg="http://www.w3.org/2000/svg"
   xmlns="http://www.w3.org/2000/svg"
   xmlns:sodipodi="http://sodipodi.sourceforge.net/DTD/sodipodi-0.dtd"
   xmlns:inkscape="http://www.inkscape.org/namespaces/inkscape"
   id="svg2"
   version="1.1"
   inkscape:version="0.48.4 r9939"
   width="765"
   height="990"
   xml:space="preserve"
   sodipodi:docname="cube_01.eps"><metadata
     id="metadata8"><rdf:RDF><cc:Work
         rdf:about=""><dc:format>image/svg+xml</dc:format><dc:type
           rdf:resource="http://purl.org/dc/dcmitype/StillImage" /><dc:title></dc:title></cc:Work></rdf:RDF></metadata><defs
     id="defs6" /><sodipodi:namedview
     pagecolor="#ffffff"
     bordercolor="#666666"
     borderopacity="1"
     objecttolerance="10"
     gridtolerance="10"
     guidetolerance="10"
     inkscape:pageopacity="0"
     inkscape:pageshadow="2"
     inkscape:window-width="1600"
     inkscape:window-height="798"
     id="namedview4"
     showgrid="false"
     inkscape:zoom="0.67425131"
     inkscape:cx="394.33413"
     inkscape:cy="490.98282"
     inkscape:window-x="0"
     inkscape:window-y="31"
     inkscape:window-maximized="1"
     inkscape:current-layer="g10" /><g
     id="g10"
     inkscape:groupmode="layer"
     inkscape:label="ink_ext_XXXXXX"
     transform="matrix(1.25,0,0,-1.25,0,990)"><path
       inkscape:connector-curvature="0"
       d="m 400.56378,193.57052 0,170.078 -170.078,-170.078 m 0,0 170.078,170.078 -170.078,0 m 340.157,-170.078 0,170.078 -170.079,-170.078 m 0,0 170.079,170.078 -170.079,0 m -170.078,-340.156995 170.078,0 -170.078,170.078995 m 0,0 170.078,-170.078995 0,170.078995 m 0,340.15701 -170.078,-170.079 170.078,0 m 0,170.079 -170.078,0 0,-170.079 m -170.079,0 170.079,-170.078 0,170.078 m -170.079,0 0,-170.078 170.079,0 m 170.078,340.157 -170.078,170.079 0,-170.079 m 170.078,0 0,170.079 -170.078,0"
       style="fill:#d9d9ff;fill-opacity:1;fill-rule:nonzero;stroke:none"
       id="path36" /><path
       id="path60"
       style="fill:none;stroke:#000000;stroke-width:1;stroke-linecap:butt;stroke-linejoin:miter;stroke-miterlimit:10;stroke-opacity:1;stroke-dasharray:5.66929, 2.83465, 1.41732, 2.83465;stroke-dashoffset:0"
       d="m 230.48578,363.64853 -170.079,0 m 0,-170.07801 170.079,0 m 0,170.07801 0,-170.078 m 170.078,-1e-5 -170.078,0 m 170.078,-170.078995 0,170.078995 m 0,170.07801 0,170.079 m -170.078,-170.079 170.078,0 m -170.078,170.079 170.078,0 m -170.078,170.079 0,-170.079 m 170.078,170.079 -170.078,0 m 170.078,-170.079 0,170.079 m 0,-340.158 0,-170.078" /><path
       inkscape:connector-curvature="0"
       d="m 400.56378,533.72753 0,0 z m -340.157,-340.15701 0,170.078 56.693,56.693 56.693,0 56.693,-56.693 0,170.07901 -56.693,56.69299 0,56.69301 56.693,56.693 0,0 56.692,56.693 56.693,0 56.693,-56.693 0,0 56.693,-56.693 0,-56.69301 -56.693,-56.69299 0,0 56.693,-56.69301 0,-56.693 -56.693,-56.693 170.079,0 0,-170.078 -170.079,0 56.693,-56.693 0,-56.692995 -56.693,-56.693 -170.078,0 0,170.078995 -56.693,-56.69299 -56.693,0 -56.693,56.69299 z"
       style="fill:none;stroke:#000000;stroke-width:1;stroke-linecap:butt;stroke-linejoin:miter;stroke-miterlimit:10;stroke-opacity:1;stroke-dasharray:none"
       id="path64" /></g></svg>