<?xml version="1.0" encoding="UTF-8" standalone="no"?>
<!-- Created with Inkscape (http://www.inkscape.org/) -->

<svg
   xmlns:dc="http://purl.org/dc/elements/1.1/"
   xmlns:cc="http://creativecommons.org/ns#"
   xmlns:rdf="http://www.w3.org/1999/02/22-rdf-syntax-ns#"
   xmlns:svg="http://www.w3.org/2000/svg"
   xmlns="http://www.w3.org/2000/svg"
   xmlns:sodipodi="http://sodipodi.sourceforge.net/DTD/sodipodi-0.dtd"
   xmlns:inkscape="http://www.inkscape.org/namespaces/inkscape"
   id="svg2"
   version="1.1"
   inkscape:version="0.48.4 r9939"
   width="765"
   height="990"
   xml:space="preserve"
   sodipodi:docname="dodecahedron_03.eps"><metadata
     id="metadata8"><rdf:RDF><cc:Work
         rdf:about=""><dc:format>image/svg+xml</dc:format><dc:type
           rdf:resource="http://purl.org/dc/dcmitype/StillImage" /><dc:title></dc:title></cc:Work></rdf:RDF></metadata><defs
     id="defs6" /><sodipodi:namedview
     pagecolor="#ffffff"
     bordercolor="#666666"
     borderopacity="1"
     objecttolerance="10"
     gridtolerance="10"
     guidetolerance="10"
     inkscape:pageopacity="0"
     inkscape:pageshadow="2"
     inkscape:window-width="1600"
     inkscape:window-height="798"
     id="namedview4"
     showgrid="false"
     inkscape:zoom="0.47676768"
     inkscape:cx="545.92441"
     inkscape:cy="475.01589"
     inkscape:window-x="0"
     inkscape:window-y="31"
     inkscape:window-maximized="1"
     inkscape:current-layer="g10" /><g
     id="g10"
     inkscape:groupmode="layer"
     inkscape:label="ink_ext_XXXXXX"
     transform="matrix(1.25,0,0,-1.25,0,990)"><path
       inkscape:connector-curvature="0"
       d="m 136.43138,183.79392 -15.8453,-87.874405 78.6767,-42.2246 m -138.856,482.785005 78.677,-42.22401 25.637,142.18401 m -88.4691,-12.086 -15.8449,-87.874 104.314,99.96 m -25.637,-142.184 64.47,61.778 -38.833,80.406 m 374.766,51.191 -78.676,42.225 -25.64,-142.184 m 25.64,142.184 -64.471,-61.778 38.831,-80.406 m 104.316,99.959 -104.316,-99.959 88.47,12.085 m -171.438,-472.19951 143.147,19.5535 -38.831,80.40501 m -104.316,-99.95851 78.677,-42.224595 64.47,61.778095 m -397.75,117.088 38.8316,-80.40499 88.4704,12.08499 m 0,0 -25.639,-142.183995 64.471,61.778105 m -38.832,80.40589 -88.4704,-12.08499 62.8314,-130.099005 m 4.291,502.339005 -64.47,-61.778 38.832,-80.406 m -80.316,-149.65101 127.302,-68.32 -62.832,130.09801 m 234.27,342.101 -88.47,-12.085 -15.846,-87.873 m 104.316,99.958 -104.316,-99.958 143.147,19.552 m -231.617,-31.638 -25.638,-142.18401 104.315,99.96001 m 231.617,31.637 -78.677,42.225 -64.47,-61.777 m 64.47,61.777 -143.147,-19.552 78.677,-42.225 m 143.147,19.552 -143.147,-19.552 38.832,-80.406 m 88.47,12.08499 15.845,87.87301 -104.315,-99.958 m -41.485,-230.058 88.471,12.085 15.845,87.874 m -104.316,-99.95901 -15.845,-87.8735 104.316,99.95851 m -215.772,56.23599 62.831,-130.0984 64.47,61.7774 m -127.301,68.321 -15.845,-87.873 78.676,-42.2254 m -141.508,172.32341 62.832,-130.09801 15.845,87.873 m 41.484,230.05801 -15.845,-87.87401 104.315,99.95901 m -168.786,-161.73701 38.832,-80.406 25.639,142.184 m 15.845,87.87401 -104.315,-99.96001 88.47,12.086 m 104.315,99.95901 -104.315,-99.95901 78.676,-42.225 m 25.639,142.18401 -25.639,-142.18401 64.471,61.77801 m -15.846,-87.87401 -64.47,-61.77799 143.147,19.55299 m -143.147,-19.55299 38.831,-80.40601 104.316,99.959 m -143.147,-19.55299 -88.47,-12.08501 127.301,-68.321 m -101.662,210.505 -25.639,-142.184 88.47,12.08501 m -62.831,130.09899 62.831,-130.09899 15.845,87.87399"
       style="fill:#d9d9ff;fill-opacity:1;fill-rule:nonzero;stroke:none"
       id="path84" /><path
       id="path144"
       style="fill:none;stroke:#000000;stroke-width:1;stroke-linecap:butt;stroke-linejoin:miter;stroke-miterlimit:10;stroke-opacity:1;stroke-dasharray:5.66929, 2.83465, 1.41732, 2.83465;stroke-dashoffset:0"
       d="m 409.53278,445.48892 88.47,12.08499 m 41.484,230.05701 -78.676,42.225 m 0,0 -64.471,-61.778 m 117.508,-122.631 -78.677,42.225 m -64.47,-61.777 -88.47,-12.085 m 127.302,-68.321 -38.832,80.406 m -62.831,130.098 -15.846,-87.873 m 104.316,99.958 -88.47,-12.085 m 127.301,-68.321 -38.831,80.406 m -25.639,-142.183 64.47,61.777 m 37.193,-272.28201 -78.677,42.225 m 101.663,-210.504 -38.831,80.40501 m -25.639,-142.183105 64.47,61.778095 m -143.147,-19.5535 78.677,-42.224595 m 25.639,142.183105 -88.471,-12.08501 m -64.47,-61.7774 64.47,61.77741 m 0,-10e-6 -38.831,80.40601 m -231.617,-31.63801 38.8316,-80.40499 m 104.3154,99.95799 -78.677,42.22501 m 62.832,-130.09801 15.845,87.873 m -104.3154,-99.95799 -15.8453,-87.874405 m 143.1477,19.553505 -38.832,80.40589 m 0,0 -88.4704,-12.08499 m 129.9544,242.14199 -64.471,-61.778 m 38.832,-80.406 88.47,12.08501 m 15.845,87.87399 -78.676,42.225 m 62.831,-130.09899 15.845,87.87399 m -205.978,110.545 38.832,-80.406 m 25.638,142.18401 -64.47,-61.77801 m 127.302,-68.32 15.845,87.87401" /><path
       inkscape:connector-curvature="0"
       d="m 460.81078,729.85592 0,0 z m 66.147,28.84099 0,0 m -130.618,-90.61899 0,0 m -6.989,71.822 0,0 m 45.82,-152.228 88.47,12.085 15.846,87.874 0,0 -12.529,71.066 -66.147,-28.841 0,0 -71.46,10.044 6.989,-71.822 -51.908,50.129 0,0 -36.562,-62.214 0,0 -63.716,-33.87601 0,0 47.87,-53.997 0,0 78.677,-42.225 m 89.134,-139.439 0,0 m -3.316,-158.94 0,0 m 70.467,-15.547 0,0 m -31.636,-64.858 0,0 z m 6.989,-71.822595 0,0 m -71.459,10.0445 0,0 0,0 0,0 z m -66.148,-28.84142 0,0 M 65.96459,199.34092 l 0,0 m 54.62149,-103.421405 0,0 z m -47.8703,53.997695 0,0 m 282.875,-3.5746 -52.013,7.3109 0,0 -78.676,42.22541 0,0 m 61.857,-33.199 -23.025,-47.2069 0,0 -64.471,-61.778105 -78.6767,42.2246 -47.8703,53.997695 63.7156,33.87671 -70.46679,15.547 31.63519,64.85799 0,0 64.47,61.778 48.146,20.992 m -13.388,69.46501 5.087,-52.27601 0,0 38.832,-80.406 0,0 m 139.158,60.656 -34.843,39.303 64.471,61.778 51.907,-50.129 0,0 36.563,62.214 0,0 15.845,87.873 0,0 -9.119,51.726 m -136.681,-381.742 0,0 -15.845,-87.8735 12.529,-71.066015 66.148,28.84142 71.459,-10.0445 -6.989,71.822595 31.636,64.858 -70.467,15.547 15.845,87.874 -12.529,71.066 -66.148,-28.841 -64.47,-61.77799 0,0 m -62.831,130.09899 -88.47,-12.086 0,0 -70.4672,15.548 0,0 31.6352,64.858 0,0 -78.677,42.22401 15.8449,87.874 88.4691,12.086 38.833,-80.40601 78.677,-42.22399 26.612,45.28299"
       style="fill:none;stroke:#000000;stroke-width:1;stroke-linecap:butt;stroke-linejoin:miter;stroke-miterlimit:10;stroke-opacity:1;stroke-dasharray:none"
       id="path186" /></g></svg>