<?xml version="1.0" encoding="UTF-8" standalone="no"?>
<!-- Created with Inkscape (http://www.inkscape.org/) -->

<svg
   xmlns:dc="http://purl.org/dc/elements/1.1/"
   xmlns:cc="http://creativecommons.org/ns#"
   xmlns:rdf="http://www.w3.org/1999/02/22-rdf-syntax-ns#"
   xmlns:svg="http://www.w3.org/2000/svg"
   xmlns="http://www.w3.org/2000/svg"
   xmlns:sodipodi="http://sodipodi.sourceforge.net/DTD/sodipodi-0.dtd"
   xmlns:inkscape="http://www.inkscape.org/namespaces/inkscape"
   id="svg2"
   version="1.1"
   inkscape:version="0.48.4 r9939"
   width="765"
   height="990"
   xml:space="preserve"
   sodipodi:docname="icosahedron_04.svg"><metadata
     id="metadata8"><rdf:RDF><cc:Work
         rdf:about=""><dc:format>image/svg+xml</dc:format><dc:type
           rdf:resource="http://purl.org/dc/dcmitype/StillImage" /></cc:Work></rdf:RDF></metadata><defs
     id="defs6" /><sodipodi:namedview
     pagecolor="#ffffff"
     bordercolor="#666666"
     borderopacity="1"
     objecttolerance="10"
     gridtolerance="10"
     guidetolerance="10"
     inkscape:pageopacity="0"
     inkscape:pageshadow="2"
     inkscape:window-width="1600"
     inkscape:window-height="798"
     id="namedview4"
     showgrid="false"
     inkscape:zoom="0.47676768"
     inkscape:cx="595.19695"
     inkscape:cy="460.95679"
     inkscape:window-x="0"
     inkscape:window-y="31"
     inkscape:window-maximized="1"
     inkscape:current-layer="g10" /><g
     id="g10"
     inkscape:groupmode="layer"
     inkscape:label="ink_ext_XXXXXX"
     transform="matrix(1.25,0,0,-1.25,0,990)"><path
       inkscape:connector-curvature="0"
       d="m 361.88215,661.27053 0.902,-127.55601 110.016,64.55901 m -106.409,-574.782005 110.016,64.5586 -110.917,62.997395 m 109.114,192.11501 -110.918,62.997 0.902,-127.556 m -0.902,127.556 -110.016,-64.559 110.918,-62.99701 m 0.902,-127.556 110.015,64.559 -110.917,62.997 m -109.114,-192.115095 110.917,-62.9969 -0.901,127.555995 m -110.918,62.997 110.918,-62.997 -0.902,127.556 m -109.114,-192.115095 110.016,64.559095 -110.918,62.997 m -0.902,127.55601 0.902,-127.556 110.016,64.559 m -220.03197,-129.118 110.91797,-62.997105 -0.902,127.556095 m -2.705,382.66701 110.015,64.559 -110.917,62.997 m 0.902,-127.556 -0.902,127.556 -110.016,-64.559 m 332.753,-188.99 -110.918,62.996 0.902,-127.555 m -111.819,190.552 110.917,-62.997 -0.902,127.556 m 0.902,-127.556 -110.016,-64.559 110.918,-62.996 m -0.902,127.555 -110.917,62.997 0.901,-127.556 m 110.918,-62.996 -110.918,62.996 0.902,-127.555 m -0.902,127.555 -0.901,127.556 -110.01644,-64.558 m 110.91744,-62.998 -110.01548,-64.559 110.91748,-62.996 m 0,0 -110.01553,-64.559 110.91753,-62.99701"
       style="fill:#d9d9ff;fill-opacity:1;fill-rule:nonzero;stroke:none"
       id="path52" /><path
       id="path112"
       style="fill:none;stroke:#000000;stroke-width:1;stroke-linecap:butt;stroke-linejoin:miter;stroke-miterlimit:10;stroke-opacity:1;stroke-dasharray:5.66929, 2.83465, 1.41732, 2.83465;stroke-dashoffset:0"
       d="m 472.80015,598.27353 -110.918,62.997 m 112.722,-318.108 -110.918,62.997 m 0.902,-127.55601 -0.902,127.55601 m 111.819,-190.55301 -110.917,62.997 m 0.902,-127.556 110.015,64.559 m -109.114,-192.114995 -0.901,127.555995 m 0,0 -0.902,127.556 m 0.902,-127.556 -110.918,62.997 m 0.902,-127.556095 110.016,64.559095 m -0.902,127.556 -110.918,62.99701 m 0.902,-127.55601 110.016,64.559 m -110.016,-64.559 -110.01597,-64.55899 m 110.91797,-62.997105 -0.902,127.556095 m 107.31,447.22601 -110.917,62.997 m 0,0 -110.016,-64.559 m 110.918,-62.997 -0.902,127.556 m 222.737,-253.549 -110.918,62.99599 m -0.902,127.55601 -110.015,-64.559 m 110.917,-62.99701 -0.902,127.55601 m 1.804,-255.111 -0.902,127.55499 m -110.016,-64.55899 110.016,64.559 m 0,-10e-6 -110.917,62.99701 m 1.803,-255.111 110.016,64.559 m 0,0 -110.918,62.996 m -0.901,127.556 -110.01644,-64.558 m 110.91744,-62.998 -0.901,127.556 m 1.803,-255.111 -0.902,127.555 m 0,0 -110.01548,-64.559 m 111.81948,-190.55201 -0.902,127.55601 m 0,0 -110.01553,-64.559" /><path
       id="path118"
       style="fill:none;stroke:#000000;stroke-width:1;stroke-linecap:butt;stroke-linejoin:miter;stroke-miterlimit:10;stroke-opacity:1;stroke-dasharray:none"
       d="m 140.94915,659.70853 0,0 z m 0.90156,-127.555 0,0 m 220.93344,1.56099 110.016,64.55901 0,0 -21.298,77.29599 -12.324,6.99901 -77.296,-21.298 -21.298,77.296 -12.324,6.999 -77.295,-21.298 0,0 -77.5887,20.203 -12.2242,-7.173 -20.2031,-77.589 110.918,-62.997 0,0 -77.5891,20.203 -12.2242,-7.173 -20.20314,-77.588 110.91744,-62.998 0,0 -77.5885,20.203 -12.2242,-7.17301 -20.20278,-77.58899 110.91748,-62.996 -77.5886,20.203 -12.2238,-7.173 -20.20313,-77.589 0,0 110.91753,-62.99701 -77.589,20.203 -12.2238,-7.174 -20.20317,-77.58799 0,0 110.91797,-62.997105 110.917,-62.9969 110.016,64.5586 -110.917,62.997395 77.588,-20.203 12.224,7.173 20.203,77.589 0,0 -21.298,77.29501 -12.324,7 -77.295,-21.298 0,0 110.016,64.559 0,0 -21.299,77.295 -12.324,7 -77.295,-21.298 0,0 110.016,64.559 0,0 -21.298,77.295 -12.325,6.999 -77.295,-21.298 z" /></g></svg>